<svg width="120" height="87" viewBox="0 0 120 87" fill="none" xmlns="http://www.w3.org/2000/svg">
<g id="Adventures In Coding 2" clip-path="url(#clip0_71_908)">
<g id="Group">
<g id="Layer_1">
<g id="Clip path group">
<mask id="mask0_71_908" style="mask-type:luminance" maskUnits="userSpaceOnUse" x="0" y="0" width="39" height="37">
<g id="clippath">
<path id="Vector" d="M38.4999 0H0V36.0806H38.4999V0Z" fill="white"/>
</g>
</mask>
<g mask="url(#mask0_71_908)">
<g id="Group_2">
<g id="Clip path group_2">
<mask id="mask1_71_908" style="mask-type:luminance" maskUnits="userSpaceOnUse" x="-12" y="-11" width="55" height="53">
<g id="clippath-1">
<path id="Vector_2" d="M24.6047 -10.0501L-11.9673 21.6295L5.57574 41.8817L42.1477 10.2021L24.6047 -10.0501Z" fill="white"/>
</g>
</mask>
<g mask="url(#mask1_71_908)">
<g id="Group_3">
<g id="Clip path group_3">
<mask id="mask2_71_908" style="mask-type:luminance" maskUnits="userSpaceOnUse" x="-12" y="-11" width="55" height="53">
<g id="clippath-2">
<path id="Vector_3" d="M24.6047 -10.0501L-11.9673 21.6295L5.57574 41.8817L42.1477 10.2021L24.6047 -10.0501Z" fill="white"/>
</g>
</mask>
<g mask="url(#mask2_71_908)">
<g id="Group_4">
<path id="Vector_4" d="M34.2857 10.1452L34.5719 16.8307C34.3638 15.8682 32.5428 7.90807 32.3867 7.20571C32.959 7.46585 34.2337 7.98611 35.3523 8.48037L36.0026 3.1216L38.3958 13.553L34.2857 10.1452ZM9.44288 23.9324C9.44288 23.9324 3.77195 22.9959 0.936484 22.5536C5.02059 24.1405 9.1047 25.7533 13.2148 27.3401C13.0587 26.6638 12.9287 25.9614 12.7726 25.2851L20.3945 27.4962C17.8972 26.0915 11.3158 22.3455 8.92261 20.9928C9.1047 21.9813 9.44288 23.9324 9.44288 23.9324ZM7.98613 33.3752L0 35.3522L12.4865 35.7685L10.6655 33.0891L15.7381 32.1526L6.26924 31.086L7.98613 33.4012V33.3752ZM31.3722 12.4604C29.4992 9.85908 24.2966 2.7314 22.3455 0.026001L24.5047 7.1797C22.7618 7.02362 19.9003 6.7895 19.9003 6.7895L28.1726 18.2354L24.0364 9.78104L31.3722 12.4344V12.4604ZM22.1895 16.2584C22.1895 16.2584 10.7956 7.1797 7.62194 4.68241L12.5385 12.6685C10.5094 13.2408 7.1537 14.1513 7.1537 14.1513C7.1537 14.1513 21.5912 24.2705 22.9178 25.3111L15.2959 16.1283L22.1895 16.2584Z" fill="#FFCA40"/>
</g>
</g>
</g>
</g>
</g>
</g>
</g>
</g>
</g>
<g id="Clip path group_4">
<mask id="mask3_71_908" style="mask-type:luminance" maskUnits="userSpaceOnUse" x="77" y="52" width="32" height="35">
<g id="clippath-3">
<path id="Vector_5" d="M108.892 52.027H77.3379V86.7029H108.892V52.027Z" fill="white"/>
</g>
</mask>
<g mask="url(#mask3_71_908)">
<g id="Group_5">
<g id="Clip path group_5">
<mask id="mask4_71_908" style="mask-type:luminance" maskUnits="userSpaceOnUse" x="75" y="47" width="45" height="49">
<g id="clippath-4">
<path id="Vector_6" d="M101.212 47.4197L75.0054 81.0836L93.6848 95.6251L119.891 61.9612L101.212 47.4197Z" fill="white"/>
</g>
</mask>
<g mask="url(#mask4_71_908)">
<g id="Group_6">
<g id="Clip path group_6">
<mask id="mask5_71_908" style="mask-type:luminance" maskUnits="userSpaceOnUse" x="75" y="47" width="45" height="49">
<g id="clippath-5">
<path id="Vector_7" d="M101.212 47.4197L75.0054 81.0836L93.6848 95.6251L119.891 61.9612L101.212 47.4197Z" fill="white"/>
</g>
</mask>
<g mask="url(#mask5_71_908)">
<g id="Group_7">
<path id="Vector_8" d="M81.8384 79.8616L80.4597 74.1126C80.7979 74.893 83.7374 81.5004 83.9975 82.0727C83.4513 81.9686 82.2546 81.7085 81.2141 81.4744L81.5523 86.2349L77.6763 77.5984L81.8384 79.8355V79.8616ZM101.036 63.6292C101.036 63.6292 106.109 63.4471 108.658 63.369C104.834 62.6927 101.01 61.9903 97.1863 61.314C97.4205 61.8863 97.6806 62.4586 97.9147 63.0048C95.5735 62.7967 93.2583 62.5886 90.9171 62.3805C93.3103 63.1869 99.6836 65.294 101.999 66.0744C101.687 65.242 101.036 63.6032 101.036 63.6032V63.6292ZM100.672 55.2008L107.254 52.1312L96.3539 53.9001L98.383 55.9292L94.1428 57.594L102.545 56.8917L100.672 55.1748V55.2008ZM83.9715 77.3643C86.0526 79.2893 91.7756 84.596 93.9347 86.573L90.8391 80.746C92.3739 80.5639 94.8972 80.3038 94.8972 80.3038L85.7404 71.7974L90.761 78.4308L83.9455 77.3903L83.9715 77.3643ZM91.2813 72.4737C91.2813 72.4737 102.727 78.4048 105.901 80.0437L100.282 73.9565C101.947 73.1241 104.704 71.7454 104.704 71.7454C104.704 71.7454 90.4489 65.4501 89.1222 64.7738L97.2904 71.4332L91.2813 72.4998V72.4737Z" fill="#C225E0"/>
</g>
</g>
</g>
</g>
</g>
</g>
</g>
</g>
</g>
<g id="Clip path group_7">
<mask id="mask6_71_908" style="mask-type:luminance" maskUnits="userSpaceOnUse" x="13" y="51" width="44" height="33">
<g id="clippath-6">
<path id="Vector_9" d="M56.1889 51.6887H13.5269V83.9454H56.1889V51.6887Z" fill="white"/>
</g>
</mask>
<g mask="url(#mask6_71_908)">
<g id="Group_8">
<g id="Clip path group_8">
<mask id="mask7_71_908" style="mask-type:luminance" maskUnits="userSpaceOnUse" x="5" y="43" width="52" height="48">
<g id="clippath-7">
<path id="Vector_10" d="M43.3493 43.553L5.95264 59.969L19.2318 90.2198L56.6285 73.8038L43.3493 43.553Z" fill="white"/>
</g>
</mask>
<g mask="url(#mask7_71_908)">
<g id="Group_9">
<g id="Clip path group_9">
<mask id="mask8_71_908" style="mask-type:luminance" maskUnits="userSpaceOnUse" x="6" y="43" width="51" height="48">
<g id="clippath-8">
<path id="Vector_11" d="M43.4362 43.5237L6.03955 59.9397L19.3187 90.1905L56.7154 73.7745L43.4362 43.5237Z" fill="white"/>
</g>
</mask>
<g mask="url(#mask8_71_908)">
<g id="Group_10">
<path id="Vector_12" fill-rule="evenodd" clip-rule="evenodd" d="M44.3787 79.1329C48.801 77.1819 52.755 74.8407 55.9547 72.3174C53.6395 73.8001 51.0642 75.1528 48.2807 76.3755C34.4155 82.4626 20.9146 82.2805 18.1571 75.9853C16.2582 71.693 19.822 65.6579 26.6635 60.3252C17.3507 66.2302 12.018 73.6701 14.2291 78.7427C17.0126 85.064 30.4875 85.246 44.3527 79.1329H44.3787ZM33.297 55.1485L33.2449 55.0444C27.7041 57.4637 26.9237 56.7613 24.6865 51.7147L24.5825 51.7667C26.7936 56.8134 26.7936 57.8799 21.2527 60.3252L21.3048 60.4292C26.8456 58.01 27.626 58.7123 29.8632 63.7589L29.9672 63.7069C27.7561 58.6603 27.7561 57.5938 33.297 55.1485Z" fill="#2EC2F6"/>
</g>
</g>
</g>
</g>
</g>
</g>
</g>
</g>
</g>
<g id="Clip path group_10">
<mask id="mask9_71_908" style="mask-type:luminance" maskUnits="userSpaceOnUse" x="77" y="5" width="44" height="33">
<g id="clippath-9">
<path id="Vector_13" d="M120.026 5.20276H77.7021V37.4594H120.026V5.20276Z" fill="white"/>
</g>
</mask>
<g mask="url(#mask9_71_908)">
<g id="Group_11">
<g id="Clip path group_11">
<mask id="mask10_71_908" style="mask-type:luminance" maskUnits="userSpaceOnUse" x="77" y="-2" width="52" height="50">
<g id="clippath-10">
<path id="Vector_14" d="M113.048 -1.46315L77.156 18.0245L92.9199 47.0581L128.812 27.5704L113.048 -1.46315Z" fill="white"/>
</g>
</mask>
<g mask="url(#mask10_71_908)">
<g id="Group_12">
<g id="Clip path group_12">
<mask id="mask11_71_908" style="mask-type:luminance" maskUnits="userSpaceOnUse" x="77" y="-2" width="52" height="50">
<g id="clippath-11">
<path id="Vector_15" d="M112.966 -1.42909L77.074 18.0586L92.8379 47.0921L128.73 27.6045L112.966 -1.42909Z" fill="white"/>
</g>
</mask>
<g mask="url(#mask11_71_908)">
<g id="Group_13">
<path id="Vector_16" fill-rule="evenodd" clip-rule="evenodd" d="M88.9142 11.6281C84.674 13.9433 80.9281 16.6227 77.9365 19.3801C80.1217 17.7152 82.5669 16.1284 85.2203 14.6977C98.5392 7.46594 111.988 6.50344 115.292 12.5646C117.529 16.6747 114.485 22.996 108.112 28.875C116.905 22.2156 121.587 14.3335 118.96 9.49499C115.656 3.43386 102.207 4.39635 88.8882 11.6281H88.9142ZM101.973 34.598L102.025 34.676C107.332 31.7885 108.19 32.4388 110.818 37.2773L110.896 37.2253C108.268 32.3868 108.19 31.3203 113.497 28.4328L113.445 28.3547C108.138 31.2422 107.28 30.5919 104.652 25.7534L104.574 25.8054C107.202 30.6439 107.28 31.7105 101.973 34.598Z" fill="#0DAE5E"/>
</g>
</g>
</g>
</g>
</g>
</g>
</g>
</g>
</g>
<path id="Vector_17" d="M46.6159 16.9868C46.7719 16.9348 46.902 16.8828 47.0061 16.7787C47.0841 16.6747 47.1621 16.5966 47.1882 16.4926C47.2142 16.4146 47.2402 16.3625 47.2402 16.3625L47.5523 16.4666C47.5523 16.4666 47.5523 16.5186 47.4743 16.6487C47.4223 16.7787 47.3703 16.9088 47.2922 17.0909C47.2142 17.247 47.1361 17.4031 47.0841 17.5591C47.0061 17.7152 46.9801 17.7933 46.954 17.8713C46.902 17.8713 46.798 17.9493 46.6419 18.0014C46.4858 18.0534 46.3297 18.1314 46.1476 18.1835C45.9655 18.2355 45.7834 18.2875 45.6274 18.2875C45.2372 18.3135 44.847 18.2875 44.4828 18.1314C44.0926 17.9754 43.7544 17.7672 43.4682 17.4811C43.1561 17.195 42.948 16.8308 42.7659 16.4146C42.6098 16.0504 42.5578 15.6602 42.5838 15.27C42.6098 14.8798 42.7138 14.4896 42.8699 14.1514C43.026 13.7872 43.2341 13.501 43.4422 13.2409C43.6763 12.9808 43.9105 12.7987 44.1706 12.6946C44.3267 12.6426 44.5088 12.5906 44.7429 12.5906C44.977 12.5906 45.2111 12.5906 45.4453 12.6426C45.6794 12.6946 45.9135 12.7727 46.0956 12.9027C46.3037 13.0328 46.4338 13.2149 46.5378 13.449L46.0696 14.4635L45.9135 14.8017L44.1966 16.3885C44.4828 16.6747 44.8209 16.8828 45.2372 17.0389C45.6534 17.1689 46.1216 17.1689 46.6419 17.0389L46.6159 16.9868ZM43.7024 13.6311C43.6503 13.7352 43.5983 13.9433 43.5463 14.1774C43.4942 14.4375 43.4943 14.7237 43.5203 15.0358C43.5463 15.348 43.6763 15.6862 43.8845 16.0243L45.3672 14.1774C45.2111 14.0213 44.977 13.9173 44.6909 13.7872C44.4047 13.6831 44.0926 13.6051 43.7024 13.6051V13.6311Z" stroke="#0C031F" stroke-width="0.83243" stroke-miterlimit="5.3"/>
<path id="Vector_18" d="M50.0238 13.501C50.414 13.605 50.7521 13.7351 51.0643 13.8651C51.3765 14.0212 51.5586 14.2553 51.6626 14.5935C51.7146 14.7496 51.7146 14.9317 51.7146 15.1398C51.7146 15.3479 51.6626 15.556 51.5586 15.7901C51.4545 15.9982 51.2984 16.2064 51.0383 16.4145C50.8042 16.5966 50.44 16.7786 49.9977 16.9087C49.7896 16.9607 49.5555 16.9868 49.3214 16.9868C49.0873 16.9868 48.8532 16.9087 48.619 16.8307C48.3849 16.7526 48.2028 16.6226 48.0467 16.4665C47.8907 16.3104 47.7866 16.1543 47.7086 15.9462C47.6825 15.8422 47.6825 15.7121 47.7086 15.582C47.7346 15.452 47.7866 15.3219 47.8386 15.2178C47.8907 15.1138 47.9427 15.0097 47.9687 14.9317C48.0207 14.8537 48.0207 14.8276 48.0207 14.8276C48.0207 14.8276 48.0728 14.8797 48.1768 14.9837C48.2809 15.0878 48.4109 15.1918 48.593 15.3219C48.7751 15.452 48.9572 15.582 49.1653 15.7381C49.3734 15.8682 49.5815 15.9722 49.7896 16.0763C49.9977 16.1543 50.2059 16.2064 50.3879 16.2064C50.57 16.2064 50.7261 16.1023 50.8302 15.9462C50.9863 15.7381 50.9863 15.53 50.8302 15.3219C50.7001 15.1138 50.44 14.9317 50.0498 14.8276C49.9457 14.8276 49.8156 14.7756 49.6596 14.7236C49.5035 14.6976 49.3214 14.6455 49.1393 14.5935C48.9572 14.5415 48.8011 14.5155 48.645 14.4895C48.2548 14.4114 47.9687 14.3334 47.8126 14.2553C47.6565 14.1773 47.5265 14.0732 47.4484 13.9432C47.3444 13.7871 47.3184 13.631 47.3184 13.4229C47.3184 13.2148 47.3184 13.0327 47.3704 12.9026C47.4224 12.6945 47.4744 12.4604 47.5785 12.2263C47.6825 11.9922 47.8126 11.7841 47.9947 11.602C48.1768 11.4199 48.3589 11.2898 48.593 11.2118C48.9572 11.1077 49.2954 11.0557 49.6075 11.0817C49.9197 11.0817 50.1538 11.1337 50.3359 11.1858C50.518 11.2378 50.5961 11.2638 50.5961 11.2638L50.0758 12.5905C50.0758 12.5905 50.0238 12.5385 49.9457 12.4604C49.8417 12.3824 49.7116 12.3043 49.5555 12.2003C49.3994 12.1222 49.2173 12.0442 49.0092 11.9922C48.8011 11.9401 48.593 11.9401 48.3589 11.9922C48.2809 11.9922 48.2028 12.0702 48.1508 12.1743C48.0988 12.2783 48.0728 12.3824 48.0728 12.5385C48.0728 12.6685 48.1248 12.7986 48.2028 12.9026C48.2809 13.0067 48.4369 13.0847 48.619 13.1368C48.9572 13.2148 49.2173 13.2668 49.3994 13.3189C49.5815 13.3709 49.7636 13.4229 49.9717 13.4749L50.0238 13.501Z" stroke="#0C031F" stroke-width="0.83243" stroke-miterlimit="5.3"/>
<path id="Vector_19" d="M55.4607 14.5675C55.4607 14.5675 55.4607 14.5675 55.4607 14.6196C55.4607 14.6716 55.4867 14.7236 55.5128 14.8016L54.3161 15.9723C54.3161 15.9723 54.2641 15.9723 54.1341 15.9462C54.004 15.9462 53.8479 15.8682 53.6918 15.8162C53.5097 15.7381 53.3536 15.6341 53.2236 15.478C53.0675 15.3219 52.9895 15.1398 52.9374 14.8797L52.2091 11.0037L51.3766 11.1598L51.2986 10.7175C51.6107 10.6655 51.8189 10.5615 51.9229 10.4314C52.027 10.3013 52.053 10.0932 52.0009 9.85909L53.1195 8.66248L53.4317 10.3533L54.6023 10.1452L54.6803 10.5875L53.5097 10.7956L54.108 13.9692C54.1601 14.2033 54.2381 14.3854 54.3422 14.5155C54.4462 14.6196 54.5763 14.6976 54.7063 14.7236C54.8364 14.7496 54.9665 14.7496 55.0705 14.7236C55.2006 14.7236 55.2786 14.6716 55.3567 14.6456C55.4347 14.6196 55.4607 14.5935 55.4607 14.5935V14.5675Z" stroke="#0C031F" stroke-width="0.83243" stroke-miterlimit="5.3"/>
<path id="Vector_20" d="M57.5416 14.9058L56.7091 15.9723L55.6426 15.1399L56.475 14.0734L57.5416 14.9058Z" stroke="#0C031F" stroke-width="0.83243" stroke-miterlimit="5.3"/>
<path id="Vector_21" d="M64.5914 12.1483L62.3803 14.4635C62.8485 14.4635 63.2387 14.4635 63.6029 14.3854C63.9671 14.3334 64.2533 14.2554 64.4874 14.1513C64.7215 14.0733 64.9036 13.9692 65.0337 13.9172C65.1637 13.8392 65.2157 13.8131 65.2157 13.8131L65.1637 15.1398L61.0276 14.9837C61.0276 14.9837 61.0796 14.9057 61.1837 14.7756C61.2877 14.6456 61.4178 14.4635 61.5739 14.2554C61.7299 14.0473 61.912 13.8131 62.0941 13.553C62.2762 13.2929 62.4583 13.0588 62.6404 12.7986C62.8225 12.5385 62.9786 12.3304 63.1347 12.1483C63.2908 11.9662 63.3948 11.8101 63.4468 11.7061C63.733 11.3679 63.9151 11.0557 63.9931 10.7956C64.0712 10.5355 64.1232 10.3013 64.1232 10.1452C64.1232 9.96315 64.1232 9.88511 64.1232 9.8591C64.1232 9.8591 64.0451 9.8591 63.9151 9.91113C63.785 9.93714 63.6029 10.0152 63.4208 10.1192C63.2387 10.2233 63.0826 10.3794 62.9266 10.5615C62.7705 10.7436 62.7185 11.0037 62.6924 11.3159C62.4843 11.1858 62.3022 11.0817 62.1462 11.0037C61.9901 10.9257 61.886 10.8476 61.808 10.7956C61.73 10.7175 61.7039 10.6135 61.7039 10.4834C61.7039 10.3013 61.782 10.1192 61.9381 9.91113C62.0941 9.70302 62.2762 9.52093 62.5104 9.36485C62.7445 9.20876 62.9786 9.15674 63.2127 9.15674H63.8631L65.1637 9.83309C65.1897 9.83309 65.2418 9.93714 65.2678 10.0932C65.3198 10.2233 65.3198 10.4054 65.3198 10.6395C65.3198 10.8476 65.2418 11.1077 65.1377 11.3679C65.0337 11.628 64.8255 11.9142 64.5654 12.2003L64.5914 12.1483Z" stroke="#0C031F" stroke-width="0.83243" stroke-miterlimit="5.3"/>
<path id="Vector_22" d="M68.8837 9.91117C69.2999 9.9632 69.6641 10.1713 69.9763 10.4835C70.2884 10.7956 70.4965 11.1858 70.6526 11.6541C70.7827 12.1223 70.8087 12.6166 70.7307 13.1628C70.6786 13.5791 70.5486 13.9433 70.3405 14.2554C70.1324 14.5936 69.9242 14.8537 69.6381 15.0878C69.378 15.322 69.0918 15.478 68.8057 15.5821C68.5195 15.6862 68.2334 15.7382 67.9992 15.6862C67.583 15.6341 67.2188 15.426 66.9067 15.1139C66.5945 14.8017 66.3864 14.4115 66.2303 13.9433C66.1003 13.475 66.0743 12.9808 66.1523 12.4345C66.2043 12.0443 66.3344 11.6801 66.5425 11.3419C66.7506 11.0037 66.9847 10.7436 67.2709 10.5095C67.557 10.2754 67.8432 10.1193 68.1033 9.98921C68.3894 9.88516 68.6496 9.83313 68.8837 9.88516V9.91117ZM68.1813 10.5615C68.1293 10.6135 68.0253 10.6916 67.9212 10.8216C67.8172 10.9517 67.6871 11.1078 67.583 11.3159C67.453 11.524 67.3749 11.7581 67.2969 12.0183C67.2188 12.2784 67.2188 12.5645 67.2449 12.8767C67.2449 12.9287 67.2449 12.9808 67.2449 13.0328C67.2449 13.0848 67.2449 13.1368 67.2709 13.1889L69.456 12.0963C69.3259 11.8102 69.1699 11.55 68.9878 11.3159C68.8057 11.0818 68.6236 10.9257 68.4675 10.7956C68.3114 10.6656 68.2074 10.5875 68.1813 10.5615ZM68.6496 15.1139C68.7797 15.0098 68.9097 14.8537 69.0918 14.6456C69.2739 14.4375 69.404 14.1774 69.534 13.8392C69.6641 13.527 69.6901 13.1628 69.6641 12.7466L67.453 13.6051C67.583 13.8912 67.7391 14.1253 67.9212 14.3335C68.1033 14.5416 68.2594 14.7237 68.4155 14.8537C68.5715 14.9838 68.6496 15.0618 68.6756 15.0878L68.6496 15.1139Z" stroke="#0C031F" stroke-width="0.83243" stroke-miterlimit="5.3"/>
<path id="Vector_23" d="M74.6846 13.9953L72.0052 15.7642C72.4474 15.8682 72.8636 15.9463 73.2278 15.9723C73.592 15.9723 73.9042 15.9723 74.1643 15.9723C74.4244 15.9463 74.6065 15.8943 74.7626 15.8682C74.8927 15.8422 74.9707 15.8162 74.9707 15.8162L74.6325 17.0909L70.6265 15.9983C70.6265 15.9983 70.6785 15.9463 70.8086 15.8422C70.9386 15.7382 71.0947 15.5821 71.3028 15.426C71.5109 15.2439 71.719 15.0618 71.9532 14.8537C72.1873 14.6456 72.4214 14.4375 72.6555 14.2554C72.8896 14.0473 73.0977 13.8652 73.2798 13.7351C73.4619 13.5791 73.592 13.475 73.696 13.397C74.0342 13.1368 74.2944 12.8767 74.4244 12.6426C74.5805 12.4085 74.6586 12.2003 74.7106 12.0443C74.7366 11.8882 74.7626 11.7841 74.7626 11.7581C74.7626 11.7581 74.6846 11.7581 74.5545 11.7581C74.3984 11.7581 74.2423 11.7841 74.0342 11.8622C73.8261 11.9142 73.644 12.0183 73.4619 12.1743C73.2798 12.3304 73.1498 12.5645 73.0717 12.8507C72.8896 12.6686 72.7336 12.5125 72.6295 12.4345C72.4994 12.3304 72.4214 12.2264 72.3694 12.1483C72.3173 12.0703 72.3173 11.9402 72.3434 11.8101C72.3954 11.6541 72.4994 11.472 72.7075 11.2899C72.8896 11.1078 73.1238 10.9777 73.3839 10.8997C73.644 10.7956 73.8781 10.7956 74.1383 10.8477L74.7626 11.0297L75.8812 11.9662C75.9072 11.9922 75.9332 12.0963 75.9332 12.2264C75.9332 12.3824 75.9332 12.5385 75.8552 12.7466C75.8031 12.9547 75.6731 13.1889 75.491 13.423C75.3089 13.6571 75.0748 13.8652 74.7366 14.0993L74.6846 13.9953Z" stroke="#0C031F" stroke-width="0.83243" stroke-miterlimit="5.3"/>
<path id="Vector_24" d="M78.8205 19.7963C78.8986 19.8483 78.9246 19.9003 78.9506 19.9263C78.9506 19.9524 78.9506 20.0044 78.9506 20.0564L78.8986 20.1605L76.7395 19.302L76.7915 19.198C76.7915 19.1459 76.8435 19.1199 76.8695 19.0939C76.8955 19.0939 76.9736 19.0939 77.0516 19.0939L77.3898 19.1459L77.728 18.2615C77.5719 18.1054 77.3898 17.9493 77.1557 17.7932C76.9216 17.6372 76.6874 17.4811 76.4533 17.351C76.2192 17.1949 75.9851 17.0649 75.777 16.9608C75.5688 16.8568 75.3868 16.7527 75.2567 16.7007C75.1266 16.6486 75.0486 16.5966 75.0486 16.5966L79.8871 12.9027L81.2398 13.0068L79.5229 17.325C79.731 17.351 79.8611 17.377 79.9651 17.403C80.0692 17.403 80.1212 17.403 80.1212 17.403L79.2367 18.0534L78.5864 19.6402L78.8205 19.7963ZM78.2482 17.0388L79.5749 13.7612L76.5834 16.3625C76.7395 16.4926 76.9476 16.6226 77.2077 16.7527C77.4678 16.8828 77.832 16.9868 78.2482 17.0128V17.0388Z" stroke="#0C031F" stroke-width="0.83243" stroke-miterlimit="5.3"/>
<path id="Vector_25" d="M46.5901 16.9869C46.7462 16.9348 46.8763 16.8828 46.9803 16.7788C47.0584 16.6747 47.1364 16.5706 47.1624 16.4926C47.1884 16.4146 47.2144 16.3625 47.2144 16.3625L47.5266 16.4666C47.5266 16.4666 47.5266 16.5186 47.4486 16.6487C47.3965 16.7788 47.3445 16.9088 47.2665 17.0909C47.1884 17.273 47.1104 17.4291 47.0584 17.5592C46.9803 17.7152 46.9543 17.7933 46.9283 17.8453C46.8763 17.8453 46.7722 17.9233 46.6161 17.9754C46.4601 18.0274 46.304 18.1054 46.1219 18.1575C45.9398 18.2095 45.7577 18.2615 45.6016 18.2615C45.2114 18.3135 44.8212 18.2615 44.431 18.1054C44.0668 17.9494 43.7286 17.7412 43.4165 17.4551C43.1043 17.169 42.8962 16.8048 42.7141 16.3886C42.558 16.0244 42.506 15.6342 42.532 15.244C42.558 14.8538 42.6621 14.4636 42.8182 14.1254C42.9743 13.7612 43.1563 13.475 43.3905 13.2149C43.6246 12.9548 43.8587 12.7727 44.1188 12.6686C44.2749 12.6166 44.483 12.5646 44.7171 12.5646C44.9513 12.5646 45.1854 12.5646 45.4195 12.6166C45.6536 12.6686 45.8878 12.7467 46.0699 12.8767C46.278 13.0068 46.408 13.1889 46.5121 13.423L46.0438 14.4375L45.8878 14.7757L44.1709 16.3625C44.457 16.6487 44.7952 16.8568 45.2114 17.0129C45.6276 17.1429 46.0959 17.1429 46.6161 17.0129L46.5901 16.9869ZM43.7026 13.6311C43.6506 13.7612 43.5986 13.9433 43.5465 14.1774C43.4945 14.4375 43.4945 14.7237 43.5205 15.0359C43.5726 15.348 43.6766 15.6862 43.8847 16.0244L45.3675 14.1774C45.1854 14.0213 44.9773 13.9173 44.6911 13.7872C44.405 13.6832 44.0928 13.6051 43.7026 13.6051V13.6311Z" fill="white"/>
<path id="Vector_26" d="M50.0238 13.501C50.414 13.605 50.7781 13.7091 51.0643 13.8652C51.3765 14.0212 51.5586 14.2554 51.6626 14.5935C51.7146 14.7496 51.7146 14.9317 51.7146 15.1398C51.7146 15.3479 51.6626 15.556 51.5586 15.7902C51.4545 16.0243 51.2984 16.2064 51.0383 16.4145C50.8042 16.5966 50.44 16.7527 49.9977 16.8827C49.7896 16.9348 49.5555 16.9608 49.3214 16.9608C49.0873 16.9608 48.8532 16.8827 48.619 16.8047C48.3849 16.7266 48.2028 16.5966 48.0207 16.4405C47.8646 16.2844 47.7606 16.1023 47.6825 15.9202C47.6565 15.8162 47.6565 15.6861 47.6825 15.556C47.7086 15.426 47.7606 15.2959 47.8126 15.1919C47.8646 15.0618 47.9167 14.9837 47.9427 14.9057L48.0207 14.8016C48.0207 14.8016 48.0728 14.8537 48.1768 14.9317C48.2809 15.0358 48.4109 15.1398 48.593 15.2699C48.7751 15.4 48.9572 15.556 49.1653 15.6861C49.3734 15.8162 49.5815 15.9202 49.7896 16.0243C49.9977 16.1023 50.2059 16.1543 50.3879 16.1543C50.57 16.1543 50.7261 16.0503 50.8562 15.8942C51.0123 15.6861 51.0123 15.504 50.8562 15.2699C50.7261 15.0358 50.466 14.8797 50.0758 14.7756C49.9717 14.7496 49.8417 14.7236 49.6856 14.6716C49.5295 14.6456 49.3474 14.5935 49.1653 14.5415C48.9832 14.4895 48.8271 14.4635 48.6711 14.4375C48.2809 14.3594 47.9947 14.2814 47.8386 14.2033C47.6825 14.1253 47.5525 14.0212 47.4484 13.8912C47.3444 13.7351 47.3184 13.553 47.3184 13.3449C47.3184 13.1368 47.3184 12.9807 47.3704 12.8246C47.3964 12.6165 47.4744 12.3824 47.5785 12.1483C47.6825 11.9142 47.8126 11.706 47.9947 11.524C48.1768 11.3419 48.3589 11.2118 48.593 11.1598C48.9572 11.0557 49.2954 11.0037 49.6075 11.0297C49.9197 11.0297 50.1538 11.0817 50.3359 11.1338C50.518 11.1858 50.5961 11.2118 50.5961 11.2118L50.0758 12.5385C50.0758 12.5385 50.0238 12.4865 49.9197 12.4084C49.8156 12.3304 49.6856 12.2523 49.5295 12.1483C49.3734 12.0702 49.1913 11.9922 48.9832 11.9402C48.7751 11.8881 48.567 11.9142 48.3329 11.9662C48.2548 11.9662 48.1768 12.0442 48.1248 12.1483C48.0728 12.2523 48.0467 12.3564 48.0467 12.5125C48.0467 12.6425 48.0988 12.7726 48.1768 12.8767C48.2548 12.9807 48.4109 13.0587 48.593 13.1108C48.9312 13.1888 49.1913 13.2408 49.3734 13.2929C49.5555 13.3449 49.7376 13.3969 49.9457 13.449L50.0238 13.501Z" fill="white"/>
<path id="Vector_27" d="M55.4606 14.5676C55.4606 14.5676 55.4606 14.5676 55.4866 14.6457C55.4866 14.6977 55.5127 14.7497 55.5387 14.8278L54.316 15.9984C54.316 15.9984 54.238 15.9984 54.1079 15.9723C53.9779 15.9723 53.8218 15.8943 53.6657 15.8423C53.5096 15.7642 53.3535 15.6602 53.1975 15.5041C53.0414 15.348 52.9633 15.1399 52.9113 14.9058L52.1829 11.0558L51.3505 11.2119L51.2725 10.7697C51.5846 10.7176 51.7927 10.6136 51.8968 10.4835C52.0008 10.3534 52.0268 10.1453 51.9748 9.91122L53.1194 8.7146L53.4316 10.4055L54.6022 10.1974L54.6802 10.6396L53.5096 10.8477L54.1079 14.0213C54.16 14.2555 54.238 14.4376 54.342 14.5416C54.4461 14.6457 54.5762 14.7237 54.7062 14.7497C54.8363 14.7757 54.9664 14.7757 55.0704 14.7497C55.1745 14.7237 55.2785 14.6977 55.3566 14.6717L55.4606 14.6197V14.5676Z" fill="white"/>
<path id="Vector_28" d="M57.5416 14.9058L56.7091 15.9723L55.6426 15.1399L56.475 14.0994L57.5416 14.9318V14.9058Z" fill="white"/>
<path id="Vector_29" d="M64.6176 12.1744L62.4064 14.4896C62.8747 14.4896 63.2649 14.4896 63.629 14.4116C63.9932 14.3335 64.2794 14.2815 64.5135 14.1774C64.7476 14.0994 64.9297 14.0213 65.0598 13.9433C65.1899 13.8653 65.2419 13.8393 65.2419 13.8393L65.1899 15.1659L61.0537 15.0099C61.0537 15.0099 61.1057 14.9318 61.2098 14.8018C61.3138 14.6717 61.4439 14.4896 61.6 14.2815C61.7561 14.0734 61.9382 13.8393 62.1203 13.5791C62.3024 13.319 62.4844 13.0589 62.6665 12.8247C62.8486 12.5646 63.0047 12.3565 63.1608 12.1744C63.3169 11.9923 63.4209 11.8362 63.499 11.7582C63.7591 11.42 63.9412 11.1339 64.0453 10.8477C64.1493 10.5876 64.1753 10.3535 64.1753 10.1974C64.1753 10.0413 64.1753 9.93724 64.1753 9.91122C64.1753 9.91122 64.0973 9.91122 63.9672 9.96325C63.8371 10.0153 63.6551 10.0673 63.473 10.1714C63.2909 10.2754 63.1348 10.4315 62.9787 10.6136C62.8486 10.7957 62.7706 11.0558 62.7446 11.368C62.5365 11.2379 62.3544 11.1339 62.2243 11.0558C62.0682 10.9778 61.9642 10.8997 61.8861 10.8477C61.8081 10.7697 61.7821 10.6656 61.7821 10.5355C61.7821 10.3535 61.8601 10.1714 62.0162 9.96325C62.1723 9.75514 62.3544 9.57305 62.5885 9.41697C62.8226 9.26089 63.0567 9.20886 63.3169 9.20886H63.9672C63.9672 9.23488 65.2679 9.88521 65.2679 9.88521C65.2939 9.88521 65.3459 9.98927 65.3719 10.1453C65.424 10.2754 65.424 10.4575 65.424 10.6916C65.424 10.8997 65.3459 11.1599 65.2159 11.42C65.1118 11.6801 64.9037 11.9663 64.6436 12.2524L64.6176 12.1744Z" fill="white"/>
<path id="Vector_30" d="M68.8836 9.91113C69.2998 9.98917 69.664 10.1713 69.9761 10.4834C70.2883 10.7956 70.4964 11.1858 70.6525 11.654C70.7826 12.1223 70.8086 12.6165 70.7305 13.1628C70.6525 13.579 70.5224 13.9432 70.3403 14.2554C70.1582 14.5936 69.9241 14.8537 69.664 15.0878C69.4038 15.3219 69.1177 15.478 68.8315 15.6081C68.5454 15.7121 68.2593 15.7642 68.0251 15.7121C67.6089 15.6341 67.2447 15.452 66.9326 15.1398C66.6204 14.8277 66.4123 14.4375 66.2562 13.9692C66.1261 13.501 66.1001 12.9807 66.1782 12.4605C66.2302 12.0702 66.3603 11.7061 66.5684 11.3679C66.7765 11.0297 67.0106 10.7696 67.2968 10.5355C67.5829 10.3013 67.869 10.1453 68.1292 10.0412C68.4153 9.93715 68.6755 9.88512 68.9096 9.93715L68.8836 9.91113ZM68.1812 10.5615C68.1292 10.6135 68.0511 10.6915 67.9211 10.8216C67.817 10.9517 67.687 11.1078 67.5569 11.3159C67.4268 11.524 67.3488 11.7321 67.2707 11.9922C67.1927 12.2523 67.1927 12.5385 67.1927 12.8507C67.1927 12.9027 67.1927 12.9547 67.1927 13.0067C67.1927 13.0588 67.1927 13.1108 67.2447 13.1628L69.4299 12.0702C69.2998 11.7841 69.1437 11.524 68.9616 11.3159C68.7795 11.0817 68.5974 10.9257 68.4413 10.7956C68.2853 10.6655 68.1812 10.5875 68.1552 10.5615H68.1812ZM68.6495 15.1138C68.7795 15.0098 68.9096 14.8537 69.0917 14.6456C69.2738 14.4375 69.4038 14.1513 69.5079 13.8392C69.612 13.527 69.664 13.1628 69.638 12.7466L67.4268 13.605C67.5569 13.8912 67.713 14.1253 67.8951 14.3594C68.0772 14.5675 68.2332 14.7496 68.3893 14.8797C68.5454 15.0098 68.6234 15.0878 68.6495 15.1138Z" fill="white"/>
<path id="Vector_31" d="M74.6843 13.9953L72.005 15.7642C72.4472 15.8683 72.8634 15.9463 73.2016 15.9723C73.5658 15.9723 73.8779 15.9723 74.112 15.9723C74.3722 15.9463 74.5543 15.8943 74.7104 15.8683C74.8404 15.8422 74.9185 15.8162 74.9185 15.8162L74.5803 17.0909L70.5742 15.9983C70.5742 15.9983 70.6262 15.9463 70.7563 15.8422C70.8864 15.7382 71.0425 15.5821 71.2506 15.426C71.4587 15.2439 71.6668 15.0618 71.9009 14.8537C72.135 14.6456 72.3692 14.4375 72.6033 14.2294C72.8374 14.0213 73.0455 13.8392 73.2276 13.7091C73.4097 13.5531 73.5658 13.449 73.6438 13.371C73.982 13.1108 74.2421 12.8507 74.3722 12.6166C74.5283 12.3825 74.6063 12.1743 74.6583 12.0183C74.7104 11.8622 74.7104 11.7581 74.7104 11.7321C74.7104 11.7321 74.6323 11.7321 74.4762 11.7321C74.3202 11.7321 74.1641 11.7581 73.956 11.8362C73.7479 11.8882 73.5658 11.9923 73.3837 12.1483C73.2016 12.3044 73.0715 12.5385 72.9935 12.8247C72.8114 12.6426 72.6813 12.5125 72.5512 12.4085C72.4212 12.3044 72.3431 12.2004 72.2911 12.1223C72.2391 12.0443 72.2131 11.9142 72.2651 11.7841C72.3171 11.6021 72.4212 11.446 72.6293 11.2639C72.8374 11.0818 73.0455 10.9517 73.3056 10.8737C73.5658 10.7696 73.7999 10.7696 74.06 10.8216L74.6843 10.9777L75.8029 11.9142C75.8289 11.9402 75.855 12.0443 75.855 12.1743C75.855 12.3304 75.8549 12.4865 75.7769 12.6946C75.7249 12.9027 75.5948 13.1368 75.4127 13.371C75.2306 13.6051 74.9965 13.8132 74.6583 14.0473L74.6843 13.9953Z" fill="white"/>
<path id="Vector_32" d="M78.8205 19.7963C78.8986 19.8483 78.9246 19.9003 78.9506 19.9264C78.9506 19.9784 78.9506 20.0044 78.9506 20.0564L78.8986 20.1605L76.7395 19.302L76.7915 19.198C76.7915 19.1459 76.8435 19.1199 76.8695 19.0939C76.9216 19.0939 76.9736 19.0939 77.0516 19.0939L77.3898 19.1459L77.754 18.2615C77.5979 18.1054 77.4158 17.9493 77.1817 17.7932C76.9736 17.6372 76.7395 17.4811 76.4793 17.325C76.2452 17.1689 76.0111 17.0389 75.777 16.9348C75.5688 16.8308 75.3868 16.7267 75.2567 16.6747C75.1266 16.5966 75.0486 16.5706 75.0486 16.5706L79.8871 12.8767L81.2398 12.9808L79.5229 17.299C79.731 17.325 79.8871 17.351 79.9911 17.377C80.0952 17.377 80.1472 17.377 80.1472 17.377L79.2628 18.0274L78.6124 19.6142L78.8465 19.7703L78.8205 19.7963ZM78.2482 17.0389L79.5489 13.7612L76.5574 16.3625C76.7134 16.4926 76.8955 16.6226 77.1817 16.7527C77.4418 16.8828 77.806 16.9868 78.2482 17.0389Z" fill="white"/>
<path id="Vector_33" d="M26.0394 39.5145C26.1955 39.5665 26.2735 39.6186 26.3255 39.6706C26.3776 39.7226 26.4036 39.8007 26.4036 39.8787V40.0868H22.3975V39.8787C22.3975 39.7747 22.3975 39.6966 22.4756 39.6706C22.5276 39.6186 22.6316 39.5665 22.7617 39.5145L23.256 39.4365L22.1894 35.0922L18.3134 36.3409L17.481 39.4365L18.0273 39.5405C18.2094 39.6186 18.2874 39.7486 18.2874 39.9047V40.1128H15.3999V39.9047C15.3999 39.7226 15.4779 39.6186 15.66 39.5405L16.1803 39.4105L19.7702 27.2102C19.7702 27.2102 19.8742 27.2102 20.0563 27.2622C20.2644 27.2622 20.4985 27.3142 20.7847 27.3923C21.0708 27.4443 21.383 27.5483 21.6691 27.6524C21.9813 27.7825 22.2414 27.9385 22.5016 28.1206C22.7357 28.3027 22.9178 28.5629 22.9958 28.849C23.1259 29.3693 23.282 29.9676 23.4641 30.696C23.6462 31.3983 23.8283 32.1527 24.0104 32.9591C24.2185 33.7395 24.4006 34.5199 24.5826 35.3003C24.7647 36.0547 24.9208 36.7571 25.0769 37.3814C25.207 38.0057 25.337 38.5 25.4151 38.8642C25.4931 39.2284 25.5451 39.4365 25.5451 39.4365L26.0914 39.5405L26.0394 39.5145ZM18.5735 35.3003L21.8512 33.7916L20.4725 28.3547L18.5735 35.3003ZM29.9414 39.1763C29.9414 39.1763 30.0715 39.1243 30.3056 39.0203C30.5397 38.9162 30.8519 38.7341 31.1901 38.474C31.5542 38.2138 31.8924 37.8757 32.2566 37.4334C32.6208 36.9912 32.9069 36.4449 33.1671 35.7686C33.4012 35.0922 33.5313 34.3118 33.5313 33.3753C33.5313 32.4389 33.4272 32.0487 33.1931 31.4764C32.985 30.9041 32.6988 30.4098 32.3347 29.9936C31.9965 29.5774 31.6063 29.2392 31.164 29.0311C30.7478 28.797 30.3316 28.6929 29.9154 28.6929V39.2024L29.9414 39.1763ZM32.1786 27.2622C32.1786 27.2622 32.3086 27.3142 32.5688 27.4183C32.8289 27.5223 33.1411 27.7044 33.5313 27.9645C33.9215 28.2247 34.3117 28.5889 34.6759 29.0311C35.0661 29.4733 35.3782 30.0456 35.6384 30.748C35.8985 31.4243 36.0286 32.2568 36.0286 33.2193C36.0286 34.1818 35.8465 34.9101 35.4823 35.7166C35.1181 36.549 34.6238 37.2774 33.9995 37.9277C33.3752 38.578 32.6728 39.0983 31.8924 39.4885C31.112 39.8787 30.3056 40.0608 29.4732 40.0608H26.8458V39.8527C26.8458 39.7486 26.8458 39.6706 26.9239 39.6446C26.9759 39.5926 27.0799 39.5405 27.21 39.4885L27.7043 39.3844V28.2247H27.3661C27.0279 28.2247 26.8718 28.1206 26.8718 27.9125V27.6524L29.9154 27.1581V27.9645L32.1265 27.2102L32.1786 27.2622ZM44.0667 27.7564V27.5483H46.8502V27.7564C46.8502 27.9385 46.7721 28.0426 46.59 28.1206L46.0698 28.2507L43.2343 40.0868H40.2427L37.3552 28.2247L36.835 28.1206C36.6789 28.0686 36.6009 28.0166 36.5488 27.9645C36.4968 27.9125 36.4708 27.8345 36.4708 27.7304V27.5223H40.4769V27.7304C40.4769 27.8345 40.4769 27.9125 40.3988 27.9645C40.3468 28.0166 40.2427 28.0686 40.1127 28.1206L39.7745 28.1987L42.3238 38.8382L44.8471 28.3027L44.3268 28.1466C44.1448 28.0686 44.0667 27.9385 44.0667 27.7825V27.7564ZM50.466 39.2804C51.2204 39.2804 51.8707 39.1763 52.443 38.9682C53.0153 38.7601 53.4836 38.526 53.8478 38.2399C54.212 37.9537 54.4981 37.7196 54.6802 37.5115C54.8623 37.3034 54.9663 37.1993 54.9663 37.1993V40.0868H47.3444V39.8787C47.3444 39.7747 47.3444 39.6966 47.4224 39.6706C47.4745 39.6186 47.5785 39.5665 47.7086 39.5145L48.2289 39.4105V28.2507L47.7086 28.1466C47.5525 28.1206 47.4745 28.0686 47.4224 28.0166C47.3704 27.9645 47.3444 27.8865 47.3444 27.7825V27.5743H54.9403V29.9416C54.9403 29.9416 54.8623 29.8635 54.6802 29.7074C54.4981 29.5514 54.212 29.3693 53.8478 29.1612C53.4836 28.9531 53.0153 28.771 52.443 28.6149C51.8707 28.4588 51.2204 28.3808 50.466 28.3808V33.5314L54.0819 33.0112V34.4939H50.466V39.3064V39.2804ZM62.8484 27.5483H65.6319V27.7825C65.6319 27.8345 65.5798 27.9125 65.4498 27.9906C65.3197 28.0686 65.1896 28.1206 65.0856 28.1727C64.9555 28.2247 64.9035 28.2507 64.9035 28.2507V40.0868H62.5102L58.218 29.6294V39.3584H58.3481L58.8684 39.5145C59.0505 39.5926 59.1545 39.7226 59.1545 39.8787V40.0868H56.0329V39.8787C56.0329 39.6966 56.137 39.5926 56.319 39.5145L56.8913 39.3844H56.9174V28.2507L56.3711 28.1206C56.215 28.0946 56.137 28.0426 56.0849 27.9906C56.0329 27.9385 56.0069 27.8605 56.0069 27.7564V27.5223H59.6488L63.6028 37.6936V28.2507H63.5768C63.5768 28.2507 63.5248 28.1987 63.3947 28.1466C63.2906 28.0946 63.1606 28.0166 63.0305 27.9645C62.9004 27.8865 62.8484 27.8345 62.8484 27.7564V27.5223V27.5483ZM72.5774 39.5145C72.7335 39.5665 72.8116 39.6186 72.8636 39.6706C72.9156 39.7226 72.9416 39.8007 72.9416 39.8787V40.0868H68.8835V39.8787C68.8835 39.7747 68.8835 39.6966 68.9616 39.6706C69.0136 39.6186 69.1177 39.5665 69.2477 39.5145L69.794 39.4105V28.3808C69.4558 28.3808 69.0656 28.4588 68.6494 28.6149C68.2332 28.771 67.843 28.9531 67.4528 29.1872C67.0626 29.3953 66.7764 29.6034 66.5423 29.7595C66.3082 29.9156 66.1781 29.9936 66.1781 29.9936V27.5483H75.6991V29.9936C75.6991 29.9936 75.569 29.9156 75.3349 29.7595C75.1007 29.6034 74.7886 29.4213 74.3984 29.1872C74.0082 28.9791 73.618 28.771 73.1757 28.6149C72.7595 28.4588 72.3693 28.3808 72.0051 28.3808V39.4105L72.5514 39.5145H72.5774ZM85.4541 39.5405C85.6102 39.5926 85.6882 39.6446 85.7402 39.6706C85.7923 39.7226 85.8183 39.7746 85.8183 39.9047V40.1128H82.7227V37.2253L79.549 40.451C79.549 40.451 79.471 40.425 79.3149 40.3469C79.1588 40.2949 78.9507 40.1909 78.7166 40.0348C78.4825 39.8787 78.2224 39.6706 77.9882 39.3844C77.7541 39.0983 77.546 38.7601 77.3899 38.3439C77.2338 37.9277 77.1558 37.4074 77.1558 36.7831V28.3027H76.7656C76.4274 28.3027 76.2714 28.1987 76.2714 27.9906V27.7304L79.367 27.2102V36.2368C79.367 36.8351 79.471 37.2513 79.6531 37.4855C79.8352 37.7196 80.0953 37.8236 80.3815 37.8236C80.6676 37.8236 80.9798 37.7196 81.2919 37.5895C81.6041 37.4334 81.9163 37.2774 82.1764 37.0693C82.4365 36.8611 82.6186 36.7051 82.7487 36.601V28.3027H82.3585C82.0203 28.3027 81.8642 28.1987 81.8642 27.9906V27.7304L84.9598 27.2102V39.4105L85.4801 39.5145L85.4541 39.5405ZM96.2237 39.5405C96.3797 39.5665 96.4578 39.6186 96.5098 39.6706C96.5618 39.7226 96.5878 39.8007 96.5878 39.9047V40.1128H93.7004L91.3331 35.7426C91.151 35.4044 90.9429 35.1963 90.7348 35.0662C90.5267 34.9622 90.2146 34.8841 89.7983 34.8841V39.3844L90.3186 39.5145C90.4747 39.5405 90.5527 39.5926 90.6048 39.6446C90.6568 39.6966 90.6568 39.7746 90.6568 39.8527V40.0608H86.6507V39.8527C86.6507 39.7486 86.6507 39.6706 86.7287 39.6446C86.8068 39.6186 86.8848 39.5405 87.0149 39.5145L87.5352 39.4105V28.2507H87.171C86.8328 28.2507 86.6507 28.1466 86.6507 27.9385V27.6784L89.7723 27.1581V28.3547L92.8159 27.1841C92.8159 27.1841 92.9199 27.2622 93.102 27.4183C93.2841 27.5743 93.5183 27.8085 93.7784 28.0946C94.0385 28.4068 94.2466 28.771 94.4547 29.1872C94.6629 29.6034 94.7409 30.0977 94.7409 30.6699C94.7409 31.2422 94.5328 31.8666 94.0906 32.3868C93.6743 32.9071 93.1801 33.3493 92.6338 33.7135C92.6338 33.7395 92.7118 33.8956 92.8419 34.1297C92.972 34.3639 93.1281 34.676 93.3362 35.0402C93.5443 35.4044 93.7524 35.7946 93.9865 36.2368C94.2206 36.653 94.4287 37.0692 94.6368 37.4334C94.8449 37.8236 95.027 38.1618 95.1831 38.448C95.3392 38.7341 95.4433 38.9162 95.4953 38.9942C95.6514 39.2804 95.8074 39.4365 95.9635 39.4625C96.1196 39.4625 96.1976 39.4885 96.1976 39.4885L96.2237 39.5405ZM89.7983 34.3639C89.7983 34.3639 89.8764 34.3118 90.0325 34.2338C90.1885 34.1297 90.3966 33.9997 90.6568 33.8436C90.9169 33.6615 91.151 33.4534 91.4112 33.1672C91.6713 32.9071 91.8794 32.5689 92.0355 32.2047C92.2176 31.8406 92.2956 31.4243 92.2956 30.9561C92.2956 30.4879 92.2176 30.0196 92.0355 29.7335C91.8534 29.4213 91.6453 29.2132 91.4112 29.0831C91.151 28.9531 90.9169 28.875 90.6568 28.849C90.3966 28.849 90.2146 28.823 90.0325 28.849C89.8764 28.849 89.7983 28.875 89.7983 28.875V34.3899V34.3639ZM100.152 39.2804C100.906 39.2804 101.556 39.1763 102.129 38.9682C102.701 38.7601 103.169 38.526 103.533 38.2399C103.898 37.9537 104.184 37.7196 104.366 37.5115C104.548 37.3034 104.652 37.1993 104.652 37.1993V40.0868H97.0301V39.8787C97.0301 39.7747 97.0301 39.6966 97.1081 39.6706C97.1862 39.6446 97.2642 39.5665 97.3943 39.5145L97.9145 39.4105V28.2507L97.3943 28.1466C97.2382 28.1206 97.1601 28.0686 97.1081 28.0166C97.0561 27.9645 97.0301 27.8865 97.0301 27.7825V27.5743H104.626V29.9416C104.626 29.9416 104.548 29.8635 104.366 29.7074C104.184 29.5514 103.898 29.3693 103.533 29.1612C103.169 28.9531 102.701 28.771 102.129 28.6149C101.556 28.4588 100.906 28.3808 100.152 28.3808V33.5314L103.768 33.0112V34.4939H100.152V39.3064V39.2804ZM111.233 33.3493C111.858 33.9216 112.43 34.4159 112.898 34.8841C113.367 35.3524 113.653 35.8466 113.757 36.3929C113.809 36.7311 113.783 37.1473 113.679 37.5895C113.575 38.0317 113.341 38.474 113.028 38.8902C112.69 39.3064 112.248 39.6706 111.65 39.9307C111.051 40.2169 110.297 40.3469 109.412 40.3469C108.528 40.3469 108.268 40.2169 107.696 39.9567C107.123 39.6966 106.655 39.3324 106.291 38.8642C105.927 38.3959 105.745 37.8497 105.745 37.1993C105.745 36.549 105.823 36.6791 105.953 36.3669C106.083 36.0547 106.239 35.7686 106.421 35.4824C106.603 35.1963 106.759 34.9622 106.889 34.7801C107.019 34.598 107.097 34.4939 107.097 34.4939C107.097 35.0662 107.201 35.6385 107.435 36.2108C107.644 36.7571 107.956 37.2774 108.346 37.7196C108.736 38.1618 109.204 38.526 109.725 38.8122C110.245 39.0723 110.817 39.2024 111.416 39.2024C111.702 38.7601 111.832 38.3439 111.832 37.9537C111.832 37.5635 111.676 37.1993 111.416 36.8351C111.155 36.4709 110.791 36.0807 110.323 35.6385C109.881 35.2223 109.36 34.7541 108.788 34.2338C108.19 33.6615 107.696 33.1152 107.279 32.621C106.863 32.1267 106.603 31.6064 106.473 31.0862C106.343 30.5659 106.421 30.0196 106.681 29.4213C106.889 28.9531 107.149 28.5629 107.461 28.2507C107.774 27.9385 108.112 27.7044 108.424 27.5223C108.762 27.3402 109.048 27.2362 109.308 27.1581C109.569 27.0801 109.751 27.0541 109.855 27.0541C110.427 27.0541 110.947 27.1321 111.416 27.2882C111.884 27.4443 112.274 27.6264 112.586 27.8345C112.898 28.0426 113.158 28.2247 113.341 28.3808C113.523 28.5368 113.601 28.6149 113.601 28.6149C113.601 28.6149 113.523 28.7189 113.367 28.901C113.21 29.0831 113.028 29.3172 112.82 29.6034C112.612 29.8895 112.378 30.1497 112.17 30.4098C111.962 30.6699 111.78 30.8781 111.65 31.0341C111.572 30.826 111.442 30.5919 111.311 30.2797C111.181 29.9676 110.999 29.6814 110.791 29.3693C110.583 29.0571 110.349 28.797 110.115 28.5889C109.855 28.3808 109.595 28.2767 109.282 28.2767C108.97 28.2767 108.736 28.3808 108.554 28.5629C108.372 28.745 108.216 28.9791 108.138 29.2652C108.034 29.5254 108.008 29.8115 108.034 30.0716C108.06 30.3318 108.164 30.5399 108.32 30.6699C108.554 30.8781 108.84 31.1122 109.126 31.3723C109.412 31.6324 109.699 31.8926 109.985 32.1267C110.271 32.3868 110.531 32.5949 110.765 32.803C110.999 32.9851 111.155 33.1412 111.233 33.2193V33.3493Z" stroke="#0C031F" stroke-width="1.37871" stroke-miterlimit="5.3"/>
<path id="Vector_34" d="M28.4847 44.561L27.9644 44.6651V55.8249L28.4847 55.9289C28.6407 55.9809 28.7188 56.033 28.7708 56.085C28.8228 56.137 28.8488 56.2151 28.8488 56.2931V56.5012H24.8428V56.2931C24.8428 56.189 24.8428 56.111 24.9208 56.085C24.9989 56.059 25.0769 55.9809 25.207 55.9289L25.7272 55.8249V44.6651L25.207 44.561C25.0509 44.535 24.9728 44.483 24.9208 44.431C24.8688 44.3789 24.8428 44.3009 24.8428 44.1968V43.9887H28.8488V44.1968C28.8488 44.3009 28.8488 44.3789 28.7708 44.431C28.7188 44.483 28.6147 44.509 28.4847 44.561ZM36.5748 43.9627H39.3583V44.1968C39.3583 44.2489 39.3062 44.3269 39.1762 44.405C39.0461 44.483 38.916 44.535 38.812 44.587C38.6819 44.6391 38.6299 44.6651 38.6299 44.6651V56.5012H36.2367L31.9444 46.0438V55.7728H32.0745L32.5948 55.9289C32.7769 56.0069 32.8809 56.111 32.8809 56.2931V56.5012H29.7593V56.2931C29.7593 56.111 29.8634 56.0069 30.0455 55.9289L30.6178 55.7988H30.6438V44.6651L30.0975 44.535C29.9414 44.509 29.8634 44.457 29.8113 44.405C29.7593 44.3529 29.7333 44.2749 29.7333 44.1708V43.9367H33.3752L37.3292 54.108V44.6651H37.3032C37.3032 44.6651 37.2512 44.6131 37.1211 44.561C37.0171 44.509 36.887 44.431 36.7569 44.3789C36.6269 44.3009 36.5748 44.2489 36.5748 44.1708V43.9367V43.9627ZM55.1484 54.5242V55.5387C54.8363 55.7468 54.4981 55.9549 54.1079 56.137C53.7177 56.3191 53.3275 56.5012 52.9373 56.6053C52.5471 56.7353 52.1829 56.7874 51.8968 56.7874C51.0903 56.7874 50.3359 56.6053 49.6336 56.2671C48.9312 55.9289 48.3069 55.4607 47.7606 54.8363C47.2143 54.238 46.7981 53.5097 46.512 52.7293C46.1998 51.9228 46.0697 51.0644 46.0697 50.1539C46.0697 49.2435 46.1998 48.7232 46.4599 48.0729C46.7201 47.3965 47.0583 46.7982 47.4745 46.2519C47.8907 45.7056 48.3589 45.2374 48.8792 44.8212C49.3995 44.405 49.9197 44.0928 50.44 43.8847C50.9603 43.6506 51.4545 43.5465 51.9228 43.5465C52.5731 43.5465 53.2234 43.6766 53.8738 43.9367C54.5241 44.1968 55.0964 44.587 55.6167 45.1073L52.9893 47.5526C52.9893 47.5526 52.9893 47.4485 52.9113 47.2404C52.8592 47.0323 52.7812 46.7722 52.6251 46.46C52.469 46.1479 52.2349 45.8357 51.8968 45.5495C51.5586 45.2374 51.1163 45.0033 50.5701 44.7952C50.518 44.8732 50.362 45.0293 50.1539 45.2634C49.9457 45.4975 49.6856 45.7837 49.4255 46.1479C49.1393 46.512 48.9052 46.9283 48.6971 47.4225C48.489 47.8908 48.3329 48.437 48.2549 48.9833C48.1768 49.5296 48.2549 50.1279 48.437 50.7522C48.6451 51.4546 49.0093 52.1309 49.5295 52.7553C50.0238 53.3796 50.6221 53.9259 51.2984 54.3681C51.9748 54.8363 52.6772 55.1485 53.4055 55.3826C53.4055 55.3826 53.5096 55.3826 53.6657 55.3046C53.8217 55.2265 54.0038 55.1485 54.2119 55.0445C54.4201 54.9404 54.6022 54.8363 54.7842 54.7583C54.9663 54.6543 55.0964 54.6022 55.1744 54.5502L55.1484 54.5242ZM62.042 43.5465C62.8484 43.5465 63.6288 43.7286 64.3312 44.0668C65.0335 44.405 65.6579 44.8732 66.2041 45.4975C66.7504 46.0958 67.1666 46.7982 67.4528 47.6046C67.7649 48.411 67.921 49.2695 67.921 50.1799C67.921 51.0904 67.7389 51.9489 67.3747 52.7553C67.0106 53.5617 66.5423 54.264 65.97 54.8624C65.3977 55.4607 64.7474 55.9549 64.071 56.2931C63.3947 56.6313 62.7183 56.8134 62.068 56.8134C61.4177 56.8134 60.5072 56.6313 59.8048 56.2931C59.1025 55.9549 58.4782 55.4867 57.9319 54.8624C57.3856 54.264 56.9694 53.5357 56.6832 52.7553C56.3711 51.9489 56.215 51.0904 56.215 50.1799C56.215 49.2695 56.3451 48.7492 56.6052 48.0989C56.8653 47.4225 57.2035 46.8242 57.6197 46.2779C58.0359 45.7316 58.5042 45.2634 59.0244 44.8472C59.5447 44.431 60.065 44.1188 60.5852 43.9107C61.1055 43.6766 61.6258 43.5725 62.068 43.5725L62.042 43.5465ZM63.6028 55.4347C63.6808 55.3566 63.8109 55.2005 64.019 54.9664C64.2271 54.7323 64.4612 54.4461 64.7214 54.082C64.9815 53.7178 65.1896 53.3016 65.3977 52.8593C65.6058 52.3911 65.7359 51.8968 65.7879 51.3505C65.84 50.8043 65.7879 50.232 65.5798 49.6076C65.3457 48.9053 65.0335 48.281 64.6694 47.7867C64.2791 47.2664 63.8629 46.8502 63.4207 46.486C62.9785 46.1218 62.5623 45.8617 62.146 45.6276C61.7298 45.4195 61.3917 45.2634 61.1055 45.1333C60.8194 45.0293 60.6373 44.9512 60.5592 44.9252C60.5072 44.9772 60.3771 45.1333 60.143 45.3674C59.9349 45.6016 59.7008 45.8877 59.4406 46.2259C59.1805 46.5901 58.9724 46.9803 58.7643 47.4485C58.5562 47.9168 58.4261 48.411 58.3741 48.9833C58.3221 49.5296 58.3741 50.1279 58.5822 50.7522C58.7903 51.4546 59.1025 52.0529 59.4667 52.5472C59.8569 53.0674 60.2471 53.4836 60.6893 53.8478C61.1315 54.212 61.5737 54.4982 61.964 54.7063C62.3802 54.9144 62.7444 55.0965 63.0305 55.2005C63.3427 55.3046 63.5248 55.3826 63.6028 55.4086V55.4347ZM71.9271 55.6167C71.9271 55.6167 72.0572 55.5647 72.2913 55.4607C72.5254 55.3566 72.8376 55.1745 73.1757 54.9144C73.5399 54.6543 73.8781 54.3161 74.2423 53.8738C74.6065 53.4316 74.8926 52.8853 75.1528 52.209C75.3869 51.5326 75.517 50.7522 75.517 49.8158C75.517 48.8793 75.4129 48.4891 75.1788 47.9168C74.9707 47.3445 74.6845 46.8502 74.3203 46.434C73.9822 46.0178 73.592 45.6796 73.1497 45.4715C72.7335 45.2374 72.3173 45.1333 71.9011 45.1333V55.6428L71.9271 55.6167ZM74.1643 43.6766C74.1643 43.6766 74.2943 43.7286 74.5545 43.8327C74.8146 43.9367 75.1267 44.1188 75.517 44.3789C75.9072 44.6391 76.2974 45.0033 76.6615 45.4455C77.0518 45.8877 77.3639 46.46 77.624 47.1624C77.8842 47.8387 78.0142 48.6712 78.0142 49.6337C78.0142 50.5962 77.8321 51.3245 77.468 52.1309C77.1038 52.9634 76.6095 53.6918 75.9852 54.3421C75.3609 54.9924 74.6585 55.5127 73.8781 55.9029C73.0977 56.2931 72.2913 56.4752 71.4589 56.4752H68.8315V56.2671C68.8315 56.163 68.8315 56.085 68.9095 56.059C68.9876 56.033 69.0656 55.9549 69.1957 55.9029L69.6899 55.7988V44.6391H69.3518C69.0136 44.6391 68.8575 44.535 68.8575 44.3269V44.0668L71.9011 43.5725V44.3789L74.1122 43.6245L74.1643 43.6766ZM82.5406 44.561L82.0203 44.6651V55.8249L82.5406 55.9289C82.6967 55.9809 82.7747 56.033 82.8267 56.085C82.8788 56.137 82.9048 56.2151 82.9048 56.2931V56.5012H78.8987V56.2931C78.8987 56.189 78.8987 56.111 78.9767 56.085C79.0288 56.033 79.1328 55.9809 79.2629 55.9289L79.7832 55.8249V44.6651L79.2629 44.561C79.1068 44.535 79.0288 44.483 78.9767 44.431C78.9247 44.3789 78.8987 44.3009 78.8987 44.1968V43.9887H82.9048V44.1968C82.9048 44.3009 82.9048 44.3789 82.8267 44.431C82.7747 44.483 82.6706 44.509 82.5406 44.561ZM90.6308 43.9627H93.4142V44.1968C93.4142 44.2489 93.3622 44.3269 93.2321 44.405C93.102 44.483 92.972 44.535 92.8679 44.587C92.7379 44.6391 92.6858 44.6651 92.6858 44.6651V56.5012H90.2926L86.0004 46.0438V55.7728H86.1304L86.6507 55.9289C86.8328 56.0069 86.9369 56.111 86.9369 56.2931V56.5012H83.8152V56.2931C83.8152 56.111 83.9193 56.0069 84.1014 55.9289L84.6737 55.7988H84.6997V44.6651L84.1534 44.535C83.9973 44.509 83.9193 44.457 83.8673 44.405C83.8152 44.3529 83.7892 44.2749 83.7892 44.1708V43.9367H87.4311L91.3851 54.108V44.6651H91.3591C91.3591 44.6651 91.3071 44.6131 91.177 44.561C91.073 44.509 90.9429 44.431 90.8129 44.3789C90.6828 44.3009 90.6308 44.2489 90.6308 44.1708V43.9367V43.9627ZM104.548 54.3421C104.548 54.3421 104.47 54.4722 104.288 54.7063C104.106 54.9664 103.846 55.2526 103.481 55.5647C103.117 55.8769 102.675 56.163 102.129 56.4232C101.582 56.6573 100.958 56.7874 100.23 56.7874C99.5013 56.7874 98.6689 56.6053 97.9666 56.2671C97.2642 55.9289 96.6399 55.4347 96.0936 54.8363C95.5473 54.238 95.1311 53.5357 94.8449 52.7293C94.5328 51.9228 94.4027 51.0644 94.4027 50.1539C94.4027 49.2435 94.5328 48.7232 94.7929 48.0729C95.053 47.3965 95.3912 46.7982 95.8074 46.2519C96.2236 45.7056 96.6919 45.2374 97.2122 44.8212C97.7324 44.405 98.2527 44.0928 98.773 43.8847C99.2932 43.6506 99.8135 43.5465 100.256 43.5465C100.906 43.5465 101.582 43.6766 102.233 43.9627C102.909 44.2489 103.533 44.6651 104.106 45.2374L101.452 47.5526C101.452 47.5526 101.452 47.4485 101.4 47.2404C101.348 47.0323 101.27 46.7982 101.088 46.486C100.932 46.1739 100.672 45.8617 100.334 45.5495C99.9956 45.2374 99.5274 44.9512 98.929 44.7431C98.877 44.7952 98.7209 44.9512 98.5128 45.1854C98.2787 45.4195 98.0446 45.7056 97.7584 46.0958C97.4983 46.46 97.2382 46.9022 97.0301 47.3705C96.822 47.8387 96.6659 48.359 96.5878 48.9313C96.5098 49.5036 96.5878 50.0759 96.7699 50.7002C96.978 51.3766 97.3422 52.0009 97.8105 52.5732C98.2787 53.1455 98.799 53.6397 99.3713 54.0559C99.9436 54.4722 100.49 54.8103 101.036 55.0445C101.582 55.3046 102.025 55.4607 102.389 55.5127V50.5441H101.296C100.932 50.5441 100.776 50.4401 100.776 50.258V49.9978L104.652 49.4255V54.3421H104.548Z" stroke="#0C031F" stroke-width="1.37871" stroke-miterlimit="5.3"/>
<path id="Vector_35" d="M26.0393 39.5144C26.1954 39.5665 26.2734 39.6185 26.3254 39.6705C26.3775 39.7225 26.4035 39.8006 26.4035 39.8786V40.0867H22.3974V39.8786C22.3974 39.7746 22.3974 39.6965 22.4754 39.6705C22.5275 39.6185 22.6055 39.5665 22.7616 39.5144L23.2559 39.4364L22.1893 35.0922L18.2873 36.3408L17.4549 39.4364L18.0011 39.5405C18.1832 39.6185 18.2613 39.7486 18.2613 39.9046V40.1127H15.3738V39.9046C15.3738 39.7225 15.4518 39.6185 15.6339 39.5405L16.1542 39.4104L19.744 27.2101C19.744 27.2101 19.8481 27.2101 20.0302 27.2361C20.2383 27.2361 20.4724 27.2881 20.7586 27.3662C21.0447 27.4182 21.3569 27.5222 21.643 27.6523C21.9552 27.7824 22.2153 27.9385 22.4494 28.1206C22.6836 28.3287 22.8656 28.5628 22.9437 28.8489C23.0738 29.3692 23.2298 29.9675 23.4119 30.6699C23.594 31.3722 23.7761 32.1266 23.9582 32.933C24.1403 33.7395 24.3484 34.4938 24.5305 35.2743C24.7126 36.0286 24.8687 36.731 25.0248 37.3553C25.1548 37.9796 25.2849 38.4739 25.3629 38.8641C25.441 39.2283 25.493 39.4364 25.493 39.4364L26.0393 39.5405V39.5144ZM18.5734 35.3003L21.8511 33.7915L20.4724 28.3547L18.5734 35.3003Z" fill="white"/>
<path id="Vector_36" d="M29.9415 39.1763C29.9415 39.1763 30.0716 39.1243 30.3057 39.0202C30.5399 38.9162 30.852 38.7341 31.1902 38.4739C31.5544 38.2138 31.8926 37.8756 32.2567 37.4334C32.6209 36.9912 32.9071 36.4449 33.1672 35.7685C33.4013 35.0922 33.5314 34.3118 33.5314 33.3753C33.5314 32.4388 33.4273 32.0486 33.1932 31.4763C32.9851 30.904 32.699 30.4098 32.3348 29.9935C31.9966 29.5773 31.6064 29.2652 31.1902 29.031C30.774 28.7969 30.3578 28.6929 29.9415 28.6929V39.2023V39.1763ZM32.1787 27.2621L32.5689 27.4182C32.829 27.5223 33.1672 27.7044 33.5314 27.9645C33.9216 28.2246 34.2858 28.5888 34.676 29.031C35.0662 29.4733 35.3784 30.0456 35.6385 30.7479C35.8986 31.4243 36.0287 32.2567 36.0287 33.2192C36.0287 34.1817 35.8466 34.9101 35.4824 35.7165C35.1182 36.5489 34.624 37.2773 33.9996 37.9276C33.3753 38.578 32.673 39.0983 31.8926 39.4885C31.1122 39.8787 30.3057 40.0607 29.4733 40.0607H26.8459V39.8526C26.8459 39.7486 26.8459 39.6705 26.924 39.6445C27.002 39.6185 27.0801 39.5405 27.2101 39.4885L27.7044 39.3844V28.2246H27.3662C27.028 28.2246 26.872 28.1206 26.872 27.9125V27.6523L29.9155 27.1581V27.9645L32.1527 27.2101L32.1787 27.2621Z" fill="white"/>
<path id="Vector_37" d="M44.0666 27.7564V27.5483H46.8501V27.7564C46.8501 27.9385 46.772 28.0426 46.5899 28.1206L46.0697 28.2507L43.2342 40.0868H40.2427L37.3552 28.2247L36.8349 28.1206C36.6788 28.0686 36.6008 28.0166 36.5487 27.9906C36.4967 27.9385 36.4707 27.8605 36.4707 27.7564V27.5483H40.4768V27.7564C40.4768 27.8605 40.4768 27.9385 40.3987 27.9906C40.3207 28.0426 40.2427 28.0946 40.1126 28.1206L39.7744 28.1987L42.3237 38.8382L44.847 28.3027L44.3268 28.1466C44.1447 28.0686 44.0666 27.9646 44.0666 27.7825V27.7564Z" fill="white"/>
<path id="Vector_38" d="M50.4661 39.2804C51.2205 39.2804 51.8708 39.1763 52.4431 38.9682C53.0154 38.7601 53.4837 38.526 53.8478 38.2399C54.212 37.9537 54.4982 37.7196 54.6803 37.5115C54.8624 37.3034 54.9664 37.1993 54.9664 37.1993V40.0868H47.3445V39.8787C47.3445 39.7746 47.3445 39.6966 47.4225 39.6706C47.5006 39.6446 47.5786 39.5665 47.7087 39.5145L48.2289 39.4105V28.2507L47.7087 28.1466C47.5526 28.1206 47.4485 28.0686 47.4225 28.0166C47.3705 27.9645 47.3445 27.8865 47.3445 27.7824V27.5743H54.9404V29.9416C54.9404 29.9416 54.8624 29.8635 54.6803 29.7074C54.4982 29.5514 54.212 29.3693 53.8478 29.1612C53.4837 28.9531 53.0154 28.771 52.4431 28.6149C51.8708 28.4588 51.2205 28.3808 50.4661 28.3808V33.5314L54.082 33.0112V34.4939H50.4661V39.2804Z" fill="white"/>
<path id="Vector_39" d="M62.8485 27.5484H65.6319V27.7825C65.6319 27.8345 65.5799 27.9125 65.4499 27.9906C65.3198 28.0686 65.1897 28.1206 65.0857 28.1727C64.9556 28.2247 64.9036 28.2507 64.9036 28.2507V40.0868H62.5103L58.1921 29.6294V39.3585H58.3222L58.8424 39.5145C59.0245 39.5926 59.1026 39.7226 59.1026 39.8787V40.0868H55.981V39.8787C55.981 39.6966 56.085 39.5926 56.2671 39.5145L56.8654 39.3845H56.8914V28.2507L56.3451 28.1206C56.1891 28.0946 56.085 28.0426 56.059 27.9906C56.007 27.9386 55.981 27.8605 55.981 27.7565V27.5223H59.6228L63.5509 37.6936V28.2507H63.5249C63.5249 28.2507 63.4728 28.1987 63.3428 28.1467C63.2387 28.0946 63.1086 28.0426 62.9786 27.9646C62.8485 27.8865 62.7965 27.8085 62.7965 27.7565V27.5223L62.8485 27.5484Z" fill="white"/>
<path id="Vector_40" d="M72.5773 39.5145C72.7334 39.5665 72.8114 39.6186 72.8634 39.6706C72.9155 39.7226 72.9415 39.8007 72.9415 39.8787V40.0868H68.8834V39.8787C68.8834 39.7747 68.8834 39.6966 68.9614 39.6706C69.0134 39.6186 69.1175 39.5665 69.2476 39.5145L69.7938 39.4105V28.3808C69.4297 28.3808 69.0655 28.4588 68.6493 28.6149C68.233 28.771 67.8428 28.9531 67.4526 29.1872C67.0884 29.3953 66.7763 29.6034 66.5422 29.7595C66.308 29.9156 66.178 29.9936 66.178 29.9936V27.5483H75.6989V29.9936C75.6989 29.9936 75.5688 29.9156 75.3347 29.7595C75.1006 29.6034 74.7884 29.4213 74.3982 29.1872C74.008 28.9791 73.6178 28.771 73.1756 28.6149C72.7594 28.4588 72.3692 28.3808 72.005 28.3808V39.4105L72.5513 39.5145H72.5773Z" fill="white"/>
<path id="Vector_41" d="M85.4541 39.5405C85.6102 39.5925 85.6883 39.6445 85.7403 39.6705C85.7923 39.6965 85.8183 39.8006 85.8183 39.9047V40.1128H82.7227V37.2253L79.5491 40.4509C79.5491 40.4509 79.4711 40.4249 79.289 40.3469C79.1329 40.2949 78.9248 40.1908 78.6646 40.0347C78.4305 39.8786 78.1704 39.6705 77.9363 39.3844C77.7021 39.0982 77.494 38.7601 77.3119 38.3438C77.1559 37.9276 77.0778 37.4074 77.0778 36.783V28.3027H76.6876C76.3494 28.3027 76.1934 28.1986 76.1934 27.9905V27.7304L79.289 27.2101V36.2368C79.289 36.8351 79.393 37.2513 79.5751 37.4854C79.7572 37.7195 80.0173 37.8236 80.3035 37.8236C80.5896 37.8236 80.9018 37.7195 81.214 37.5634C81.5521 37.4074 81.8383 37.2253 82.0984 37.0432C82.3585 36.8351 82.5667 36.679 82.6707 36.5749V28.2766H82.2805C81.9423 28.2766 81.7862 28.1726 81.7862 27.9645V27.7044L84.8818 27.1841V39.3844L85.4021 39.4884L85.4541 39.5405Z" fill="white"/>
<path id="Vector_42" d="M96.2237 39.5405C96.3798 39.5665 96.4578 39.6185 96.5098 39.6705C96.5619 39.7226 96.5879 39.8006 96.5879 39.9047V40.1128H93.7004L91.3332 35.7425C91.1511 35.4043 90.943 35.1962 90.7348 35.0662C90.5267 34.9621 90.2146 34.8841 89.7984 34.8841V39.3844L90.3186 39.5145C90.4747 39.5405 90.5528 39.5925 90.6048 39.6445C90.6568 39.6966 90.6828 39.7746 90.6828 39.8526V40.0607H86.6768V39.8526C86.6768 39.7486 86.6768 39.6705 86.7548 39.6445C86.8328 39.6185 86.9109 39.5405 87.0409 39.5145L87.5612 39.4104V28.2506H87.197C86.8589 28.2506 86.6768 28.1466 86.6768 27.9385V27.6783L89.7984 27.1581V28.3287L92.8419 27.1581L93.1281 27.3922C93.3362 27.5483 93.5443 27.7824 93.8044 28.0686C94.0646 28.3807 94.2987 28.7449 94.4808 29.1611C94.6889 29.5773 94.7669 30.0716 94.7669 30.6439C94.7669 31.2162 94.5588 31.8405 94.1166 32.3608C93.7004 32.881 93.2061 33.3233 92.6598 33.6875C92.6598 33.7135 92.7379 33.8696 92.868 34.1037C92.998 34.3378 93.1541 34.65 93.3622 35.0141C93.5703 35.3783 93.7784 35.7685 94.0125 36.1847C94.2467 36.601 94.4548 37.0172 94.6629 37.3814C94.871 37.7716 95.0531 38.1097 95.2092 38.3959C95.3652 38.682 95.4693 38.8641 95.4953 38.9422C95.6514 39.2283 95.8075 39.3844 95.9636 39.4104C96.1196 39.4104 96.1977 39.4364 96.1977 39.4364L96.2237 39.5405ZM89.7984 34.3638C89.7984 34.3638 89.8764 34.3118 90.0325 34.2337C90.1886 34.1297 90.3967 33.9996 90.6568 33.8435C90.9169 33.6614 91.1511 33.4533 91.4112 33.1672C91.6713 32.9071 91.8794 32.5689 92.0355 32.2047C92.2176 31.8405 92.2957 31.4243 92.2957 30.956C92.2957 30.4878 92.2176 30.0196 92.0355 29.7334C91.8534 29.4213 91.6453 29.2131 91.4112 29.0831C91.1511 28.953 90.9169 28.875 90.6568 28.849C90.3967 28.849 90.1886 28.8229 90.0325 28.849C89.8764 28.849 89.7984 28.875 89.7984 28.875V34.3898V34.3638Z" fill="white"/>
<path id="Vector_43" d="M100.152 39.2804C100.906 39.2804 101.557 39.1763 102.129 38.9682C102.701 38.7601 103.169 38.526 103.534 38.2399C103.898 37.9537 104.184 37.7196 104.366 37.5115C104.548 37.3034 104.652 37.1993 104.652 37.1993V40.0868H97.0303V39.8787C97.0303 39.7746 97.0303 39.6966 97.1083 39.6706C97.1864 39.6446 97.2644 39.5665 97.3945 39.5145L97.9147 39.4105V28.2507L97.3945 28.1466C97.2384 28.1206 97.1343 28.0686 97.1083 28.0166C97.0563 27.9645 97.0303 27.8865 97.0303 27.7824V27.5743H104.626V29.9416C104.626 29.9416 104.548 29.8635 104.366 29.7074C104.184 29.5514 103.898 29.3693 103.534 29.1612C103.169 28.9531 102.701 28.771 102.129 28.6149C101.557 28.4588 100.906 28.3808 100.152 28.3808V33.5314L103.768 33.0112V34.4939H100.152V39.2804Z" fill="white"/>
<path id="Vector_44" d="M111.234 33.3493C111.858 33.9216 112.404 34.4159 112.872 34.8841C113.341 35.3524 113.627 35.8466 113.731 36.3929C113.783 36.7571 113.757 37.1473 113.653 37.5895C113.549 38.0317 113.315 38.474 113.003 38.8902C112.664 39.3064 112.222 39.6706 111.624 39.9307C111.025 40.2169 110.271 40.3469 109.387 40.3469C108.502 40.3469 108.242 40.2169 107.67 39.9567C107.097 39.6966 106.629 39.3324 106.265 38.8642C105.901 38.3959 105.719 37.8497 105.719 37.1993C105.719 36.549 105.797 36.6791 105.927 36.3669C106.057 36.0547 106.213 35.7686 106.395 35.4824C106.577 35.1963 106.733 34.9622 106.863 34.7801L107.071 34.4939C107.071 35.0922 107.176 35.6385 107.41 36.2108C107.618 36.7571 107.93 37.2774 108.32 37.7196C108.71 38.1878 109.179 38.526 109.699 38.8122C110.219 39.0723 110.791 39.2024 111.39 39.2024C111.676 38.7601 111.832 38.3439 111.806 37.9537C111.806 37.5635 111.65 37.1993 111.39 36.8351C111.13 36.4709 110.765 36.0807 110.297 35.6385C109.829 35.2223 109.335 34.7541 108.762 34.2338C108.164 33.6615 107.67 33.1152 107.254 32.621C106.837 32.1267 106.577 31.6064 106.447 31.0862C106.317 30.5659 106.395 30.0196 106.681 29.4213C106.889 28.9531 107.149 28.5629 107.462 28.2507C107.774 27.9385 108.112 27.7044 108.45 27.5223C108.788 27.3402 109.074 27.2362 109.335 27.1581C109.595 27.0801 109.777 27.0541 109.881 27.0541C110.453 27.0541 110.973 27.1321 111.442 27.3142C111.91 27.4703 112.3 27.6524 112.612 27.8605C112.95 28.0686 113.185 28.2507 113.367 28.4068C113.549 28.5629 113.627 28.6409 113.627 28.6409L113.393 28.927C113.237 29.1352 113.055 29.3693 112.846 29.6294C112.638 29.9156 112.404 30.1757 112.196 30.4358C111.988 30.696 111.806 30.9041 111.676 31.0601C111.598 30.852 111.468 30.6179 111.338 30.3058C111.208 29.9936 111.025 29.7074 110.817 29.3953C110.609 29.0831 110.375 28.823 110.141 28.6149C109.907 28.4068 109.621 28.3027 109.309 28.3027C108.996 28.3027 108.788 28.4068 108.58 28.5889C108.372 28.771 108.242 29.0051 108.138 29.2912C108.06 29.5774 108.008 29.8375 108.034 30.0976C108.034 30.3578 108.164 30.5659 108.32 30.722C108.554 30.9301 108.84 31.1642 109.127 31.4243C109.413 31.6845 109.699 31.9446 109.985 32.1787C110.271 32.4389 110.531 32.673 110.739 32.8551C110.973 33.0632 111.13 33.1932 111.234 33.2713V33.3493Z" fill="white"/>
<path id="Vector_45" d="M28.4847 44.5611L27.9644 44.6651V55.8249L28.4847 55.9289C28.6407 55.981 28.7188 56.033 28.7708 56.085C28.8228 56.137 28.8488 56.2151 28.8488 56.2931V56.5012H24.8428V56.2931C24.8428 56.1891 24.8428 56.111 24.9208 56.085C24.9989 56.059 25.0769 55.981 25.207 55.9289L25.7272 55.8249V44.6651L25.207 44.5611C25.0509 44.5351 24.9728 44.483 24.9208 44.431C24.8688 44.379 24.8428 44.3009 24.8428 44.1969V43.9888H28.8488V44.1969C28.8488 44.3009 28.8488 44.379 28.7708 44.431C28.6928 44.483 28.6147 44.509 28.4847 44.5611Z" fill="white"/>
<path id="Vector_46" d="M36.5751 43.9628H39.3585V44.1969C39.3585 44.2489 39.3065 44.327 39.1764 44.405C39.0463 44.4831 38.9163 44.5351 38.8122 44.5871C38.6822 44.6391 38.6301 44.6651 38.6301 44.6651V56.5013H36.2369L31.9187 46.0439V55.7729H32.0487L32.569 55.929C32.7511 56.007 32.8291 56.1371 32.8291 56.2932V56.5013H29.7075V56.2932C29.7075 56.1111 29.8116 56.007 29.9937 55.929L30.592 55.7989H30.618V44.6651L30.0717 44.5351C29.9156 44.5091 29.8116 44.457 29.7856 44.405C29.7335 44.353 29.7075 44.2749 29.7075 44.1709V43.9368H33.3494L37.2774 54.108V44.6651H37.2514C37.2514 44.6651 37.1994 44.6131 37.0693 44.5611C36.9653 44.5091 36.8352 44.457 36.7051 44.379C36.5751 44.301 36.523 44.2229 36.523 44.1709V43.9368L36.5751 43.9628Z" fill="white"/>
<path id="Vector_47" d="M55.1483 54.5242V55.5387C54.8361 55.7468 54.498 55.9549 54.1078 56.137C53.7176 56.3191 53.3274 56.5012 52.9372 56.6053C52.547 56.7353 52.1828 56.7874 51.8966 56.7874C51.0902 56.7874 50.3358 56.6053 49.6334 56.2671C48.9311 55.9289 48.3068 55.4607 47.7605 54.8363C47.2142 54.238 46.798 53.5097 46.4858 52.7293C46.1737 51.9228 46.0176 51.0644 46.0176 50.1539C46.0176 49.2435 46.1476 48.7232 46.4078 48.0728C46.6679 47.3965 47.0061 46.7982 47.4223 46.2519C47.8385 45.7056 48.3068 45.2374 48.827 44.8212C49.3473 44.405 49.8676 44.0928 50.3878 43.8847C50.9081 43.6506 51.4024 43.5465 51.8706 43.5465C52.5209 43.5465 53.1713 43.6766 53.8216 43.9367C54.4719 44.1968 55.0442 44.587 55.5645 45.1073L52.9372 47.5526C52.9372 47.5526 52.9372 47.4485 52.8591 47.2404C52.8071 47.0323 52.729 46.7722 52.573 46.46C52.4169 46.1479 52.1828 45.8357 51.8446 45.5495C51.5064 45.2374 51.0642 45.0033 50.5179 44.7952C50.4659 44.8732 50.3098 45.0293 50.1017 45.2634C49.8936 45.4975 49.6334 45.7837 49.3733 46.1479C49.0872 46.512 48.853 46.9283 48.6189 47.4225C48.4108 47.8908 48.2547 48.411 48.2027 48.9833C48.1247 49.5556 48.2027 50.1279 48.4108 50.7522C48.6189 51.4546 48.9831 52.1309 49.5034 52.7553C49.9976 53.3796 50.5959 53.8999 51.2723 54.3681C51.9486 54.8363 52.651 55.1485 53.3794 55.3826C53.3794 55.3826 53.4834 55.3826 53.6395 55.3046C53.7956 55.2265 53.9777 55.1485 54.1858 55.0445C54.3939 54.9404 54.576 54.8363 54.7581 54.7583C54.9402 54.6803 55.0703 54.6022 55.1483 54.5762V54.5242Z" fill="white"/>
<path id="Vector_48" d="M62.068 43.5465C62.8744 43.5465 63.6548 43.7286 64.3572 44.0668C65.0595 44.405 65.6839 44.8992 66.2302 45.4975C66.7764 46.0958 67.1926 46.7982 67.4788 47.6046C67.791 48.411 67.947 49.2695 67.947 50.1799C67.947 51.0904 67.7649 51.9489 67.4008 52.7553C67.0366 53.5617 66.5683 54.264 65.996 54.8624C65.3977 55.4607 64.7734 55.9549 64.097 56.2931C63.4207 56.6313 62.7444 56.8134 62.068 56.8134C61.3917 56.8134 60.5072 56.6313 59.8048 56.2931C59.1025 55.9549 58.4781 55.4867 57.9319 54.8624C57.3856 54.264 56.9694 53.5357 56.6572 52.7553C56.345 51.9489 56.189 51.0904 56.189 50.1799C56.189 49.2695 56.319 48.7492 56.5792 48.0989C56.8393 47.4225 57.1775 46.8242 57.5937 46.2779C58.0099 45.7316 58.4781 45.2634 58.9984 44.8472C59.5187 44.431 60.039 44.1188 60.5592 43.9107C61.0795 43.6766 61.5737 43.5725 62.042 43.5725L62.068 43.5465ZM63.6028 55.4347C63.6808 55.3566 63.8109 55.2005 64.019 54.9664C64.2271 54.7323 64.4612 54.4461 64.7214 54.082C64.9815 53.7178 65.1896 53.3276 65.3977 52.8593C65.6058 52.3911 65.7359 51.8968 65.7879 51.3505C65.8399 50.8043 65.7879 50.232 65.5798 49.6076C65.3457 48.9053 65.0335 48.281 64.6693 47.7867C64.2791 47.2664 63.8629 46.8502 63.4207 46.486C62.9785 46.1218 62.5623 45.8617 62.146 45.6276C61.7298 45.4195 61.3917 45.2634 61.1055 45.1333C60.8194 45.0293 60.6373 44.9512 60.5592 44.9252C60.5072 44.9772 60.3511 45.1333 60.143 45.3414C59.9349 45.5756 59.7008 45.8617 59.4406 46.1999C59.1805 46.5641 58.9724 46.9543 58.7643 47.4225C58.5562 47.8908 58.4261 48.385 58.3741 48.9573C58.3221 49.5036 58.3741 50.1019 58.5822 50.7262C58.7903 51.4286 59.1025 52.0269 59.4667 52.5472C59.8569 53.0674 60.2471 53.4836 60.7153 53.8478C61.1575 54.186 61.5998 54.4722 61.99 54.7063C62.4062 54.9144 62.7704 55.0965 63.0565 55.2005C63.3687 55.3046 63.5508 55.3826 63.6288 55.4086L63.6028 55.4347Z" fill="white"/>
<path id="Vector_49" d="M71.9271 55.6167C71.9271 55.6167 72.0572 55.5647 72.2913 55.4607C72.5254 55.3566 72.8376 55.1745 73.1758 54.9144C73.54 54.6542 73.8781 54.3161 74.2423 53.8738C74.6065 53.4316 74.8927 52.8853 75.1528 52.209C75.3869 51.5326 75.517 50.7522 75.517 49.8157C75.517 48.8793 75.4129 48.489 75.1788 47.9168C74.9707 47.3445 74.6846 46.8502 74.3204 46.434C73.9822 46.0178 73.592 45.7056 73.1758 45.4715C72.7596 45.2374 72.3434 45.1333 71.9271 45.1333V55.6427V55.6167ZM74.1643 43.6766L74.5545 43.8326C74.8146 43.9367 75.1528 44.1188 75.517 44.3789C75.9072 44.6391 76.2714 45.0032 76.6616 45.4455C77.0518 45.8877 77.3639 46.46 77.6241 47.1624C77.8842 47.8387 78.0143 48.6711 78.0143 49.6336C78.0143 50.5961 77.8322 51.3245 77.468 52.1309C77.1038 52.9634 76.6096 53.6917 75.9852 54.3421C75.3609 54.9924 74.6586 55.5127 73.8781 55.9029C73.0977 56.2931 72.2913 56.4752 71.4589 56.4752H68.8315V56.2671C68.8315 56.163 68.8315 56.085 68.9096 56.059C68.9876 56.0329 69.0657 55.9549 69.1957 55.9029L69.69 55.7988V44.6391H69.3518C69.0136 44.6391 68.8576 44.535 68.8576 44.3269V44.0668L71.9011 43.5725V44.3789L74.1383 43.6245L74.1643 43.6766Z" fill="white"/>
<path id="Vector_50" d="M82.5406 44.5611L82.0203 44.6651V55.8249L82.5406 55.9289C82.6966 55.981 82.7747 56.033 82.8267 56.085C82.8787 56.137 82.9048 56.2151 82.9048 56.2931V56.5012H78.8987V56.2931C78.8987 56.1891 78.8987 56.111 78.9767 56.085C79.0548 56.059 79.1328 55.981 79.2629 55.9289L79.7831 55.8249V44.6651L79.2629 44.5611C79.1068 44.5351 79.0288 44.483 78.9767 44.431C78.9247 44.379 78.8987 44.3009 78.8987 44.1969V43.9888H82.9048V44.1969C82.9048 44.3009 82.9048 44.379 82.8267 44.431C82.7487 44.483 82.6706 44.509 82.5406 44.5611Z" fill="white"/>
<path id="Vector_51" d="M90.6307 43.9628H93.4142V44.1969C93.4142 44.2489 93.3621 44.327 93.2321 44.405C93.102 44.4831 92.9719 44.5351 92.8679 44.5871C92.7378 44.6391 92.6858 44.6651 92.6858 44.6651V56.5013H90.2926L85.9743 46.0439V55.7729H86.1044L86.6247 55.929C86.8068 56.007 86.8848 56.1371 86.8848 56.2932V56.5013H83.7632V56.2932C83.7632 56.1111 83.8672 56.007 84.0493 55.929L84.6476 55.7989H84.6737V44.6651L84.1274 44.5351C83.9713 44.5091 83.8672 44.457 83.8412 44.405C83.7892 44.353 83.7632 44.2749 83.7632 44.1709V43.9368H87.4051L91.3331 54.108V44.6651H91.3071C91.3071 44.6651 91.2551 44.6131 91.125 44.5611C91.0209 44.5091 90.8909 44.457 90.7608 44.379C90.6307 44.301 90.5787 44.2229 90.5787 44.1709V43.9368L90.6307 43.9628Z" fill="white"/>
<path id="Vector_52" d="M104.522 54.3421C104.522 54.3421 104.444 54.4722 104.262 54.7063C104.08 54.9664 103.82 55.2526 103.455 55.5647C103.091 55.8769 102.649 56.163 102.103 56.4232C101.556 56.6573 100.932 56.7874 100.204 56.7874C99.4754 56.7874 98.6429 56.6053 97.9406 56.2671C97.2382 55.9289 96.6139 55.4347 96.0676 54.8363C95.5213 54.238 95.1051 53.5357 94.7929 52.7293C94.4808 51.9228 94.3247 51.0644 94.3247 50.1539C94.3247 49.2435 94.4548 48.7232 94.7149 48.0728C94.975 47.3965 95.3132 46.7982 95.7294 46.2519C96.1456 45.7056 96.6139 45.2374 97.1342 44.8212C97.6544 44.405 98.1747 44.0928 98.695 43.8847C99.2152 43.6506 99.7095 43.5465 100.178 43.5465C100.828 43.5465 101.504 43.6766 102.155 43.9627C102.831 44.2489 103.429 44.6651 104.028 45.2374L101.374 47.5526C101.374 47.5526 101.374 47.4485 101.296 47.2664C101.244 47.0583 101.14 46.7982 100.984 46.512C100.828 46.1999 100.568 45.8877 100.23 45.5756C99.8916 45.2634 99.4233 44.9773 98.825 44.7691C98.773 44.8212 98.6169 44.9773 98.4088 45.2114C98.1747 45.4455 97.9406 45.7577 97.6544 46.1218C97.3683 46.486 97.1342 46.9283 96.9 47.3965C96.6919 47.8647 96.5358 48.385 96.4578 48.9573C96.3798 49.5296 96.4578 50.1279 96.6399 50.7262C96.848 51.4026 97.2122 52.0269 97.6804 52.5992C98.1487 53.1715 98.669 53.6657 99.2412 54.082C99.8135 54.4982 100.36 54.8363 100.906 55.0965C101.452 55.3566 101.895 55.5127 102.259 55.5647V50.5962H101.166C100.802 50.5962 100.646 50.4921 100.646 50.31V50.0499L104.522 49.4516V54.3681V54.3421Z" fill="white"/>
<path id="Vector_53" d="M48.0729 68.8056L49.5816 69.4039L49.5296 69.534C49.5036 69.638 49.4256 69.69 49.3215 69.69L48.9833 69.638L46.0698 73.8782L44.535 73.2539L44.9252 70.9647L43.4685 72.8116L42.0117 72.2133L42.7141 67.1147L42.2979 66.8546C42.2198 66.8025 42.1678 66.7505 42.1678 66.7245C42.1678 66.6725 42.1678 66.6465 42.1678 66.5684L42.2198 66.4384L44.431 67.3488L44.3789 67.4789C44.3789 67.5309 44.3269 67.5829 44.2749 67.609C44.2489 67.609 44.1708 67.609 44.0928 67.609L43.8327 67.5569L43.1303 72.1873L44.9772 69.638L45.1854 67.661L46.382 68.1292L45.6536 73.1758L48.2289 69.3519L48.0208 69.1698C47.9428 69.0917 47.9428 69.0137 47.9688 68.9096L48.0208 68.7796L48.0729 68.8056Z" stroke="#0C031F" stroke-width="0.83243" stroke-miterlimit="5.3"/>
<path id="Vector_54" d="M52.365 67.3749L53.0414 67.557L48.8792 74.6586L48.2029 74.4765L52.365 67.3749Z" stroke="#0C031F" stroke-width="0.83243" stroke-miterlimit="5.3"/>
<path id="Vector_55" d="M57.0994 75.6471C57.0994 75.6471 57.1774 75.6211 57.3335 75.5691C57.4896 75.517 57.6717 75.413 57.9058 75.2829C58.1399 75.1529 58.348 74.9447 58.5822 74.7106C58.8163 74.4505 59.0244 74.1383 59.2065 73.7481C59.3886 73.3579 59.4926 72.8897 59.5447 72.3434C59.5707 71.9272 59.5447 71.537 59.4406 71.1988C59.3366 70.8346 59.1805 70.5225 58.9984 70.2623C58.8163 70.0022 58.5822 69.7941 58.348 69.638C58.1139 69.4819 57.8538 69.4039 57.6197 69.3779C57.6197 69.638 57.5676 69.9762 57.5416 70.3924C57.5156 70.8086 57.4636 71.2508 57.4376 71.7191C57.4116 72.1873 57.3595 72.6556 57.3335 73.1238C57.3075 73.592 57.2555 74.0083 57.2295 74.3985C57.2035 74.7887 57.1774 75.0748 57.1514 75.3089C57.1514 75.5431 57.1254 75.6471 57.1254 75.6471H57.0994ZM58.9724 68.5975C58.9724 68.5975 59.0504 68.6495 59.2065 68.7015C59.3626 68.7796 59.5447 68.9096 59.7528 69.0917C59.9609 69.2738 60.195 69.5079 60.4031 69.7941C60.6112 70.0802 60.7673 70.4444 60.8974 70.8606C61.0274 71.2768 61.0534 71.7711 61.0274 72.3694C60.9754 72.8897 60.8453 73.3579 60.5852 73.8522C60.3251 74.3204 59.9869 74.7366 59.5967 75.1008C59.1805 75.465 58.7382 75.7512 58.27 75.9333C57.7757 76.1414 57.3075 76.2194 56.8132 76.1674C56.8132 76.1674 56.7612 76.1674 56.6572 76.1674C56.5531 76.1674 56.423 76.1674 56.267 76.1414C56.1109 76.1414 55.9548 76.1414 55.7987 76.1154C55.6426 76.1154 55.5126 76.1153 55.4085 76.0893C55.3045 76.0893 55.2524 76.0893 55.2524 76.0893V75.9593C55.2524 75.9072 55.2785 75.8552 55.3045 75.8292C55.3305 75.8032 55.4085 75.7772 55.4866 75.7512H55.7987C55.7987 75.7252 56.319 69.0397 56.319 69.0397H56.1109C55.9028 69.0137 55.8247 68.9356 55.8247 68.8056V68.6495L57.6717 68.4934V68.9617C57.6457 68.9617 58.9984 68.5975 58.9984 68.5975H58.9724Z" stroke="#0C031F" stroke-width="0.83243" stroke-miterlimit="5.3"/>
<path id="Vector_56" d="M66.8547 75.8293C66.9847 75.8553 67.0628 75.9333 67.0628 76.0374V76.1674L65.2158 76.2715L65.1378 74.9188L63.681 76.5836C63.681 76.5836 63.603 76.5316 63.4729 76.4536C63.3429 76.3755 63.1868 76.2455 62.9787 76.1154C62.7706 75.9593 62.5885 75.7772 62.3804 75.5691C62.1723 75.361 62.0162 75.1269 61.8601 74.8668C61.704 74.6066 61.626 74.3205 61.626 74.0083C61.626 73.6962 61.652 73.384 61.756 73.0718C61.8601 72.7597 62.0162 72.4735 62.1723 72.1874C62.3544 71.9012 62.5104 71.6671 62.6925 71.459C62.8746 71.2509 63.0307 71.0688 63.1348 70.9387L63.3169 70.7566L64.9297 71.5891L64.8777 70.6526L66.7506 70.8607V71.0168C66.7506 71.1468 66.6726 71.1989 66.4645 71.2249H66.2564L66.5165 75.8293L66.8287 75.8813L66.8547 75.8293ZM63.7331 75.8813L65.0858 74.0083L64.9817 71.9793C64.9037 71.9533 64.8256 71.9012 64.7216 71.8752C64.6175 71.8492 64.4875 71.8232 64.3314 71.8492C64.2013 71.8492 64.0712 71.9012 63.8891 72.0053C63.7331 72.1093 63.577 72.2394 63.4209 72.4215C63.2648 72.6036 63.1348 72.8117 63.0567 73.0718C62.9787 73.332 62.9267 73.6181 62.9527 73.9303C62.9527 74.3725 63.0567 74.7367 63.1868 75.0228C63.3169 75.309 63.4469 75.5171 63.577 75.6732C63.7071 75.8032 63.7591 75.8813 63.7591 75.8813H63.7331Z" stroke="#0C031F" stroke-width="0.83243" stroke-miterlimit="5.3"/>
<path id="Vector_57" d="M70.3925 70.0542L72.0574 69.7421V69.8721C72.1094 69.9762 72.0574 70.0542 71.9793 70.1063L71.6672 70.2363L71.1729 75.439L69.5861 75.7512L67.401 71.0688H66.9847C66.9067 71.0688 66.8287 71.0427 66.8026 71.0167C66.7766 71.0167 66.7506 70.9387 66.7246 70.8867V70.7566L69.0658 70.3144V70.4444C69.0918 70.4965 69.0918 70.5485 69.0658 70.6005C69.0658 70.6265 68.9878 70.6785 68.9097 70.7046L68.7016 70.8086L70.6006 75.0748L70.9128 70.3664H70.6266C70.5226 70.3664 70.4445 70.2883 70.4445 70.1843V70.0542H70.3925Z" stroke="#0C031F" stroke-width="0.83243" stroke-miterlimit="5.3"/>
<path id="Vector_58" d="M75.4652 73.9822C75.5432 73.9822 75.6212 73.9822 75.6473 74.0342C75.6733 74.0342 75.6993 74.0863 75.7253 74.1383V74.2684C75.7513 74.2684 73.5922 74.8927 73.5922 74.8927V74.7626C73.5402 74.6586 73.5922 74.5805 73.6963 74.5025L73.9824 74.3464L72.7077 69.9501L72.4996 70.0022C72.3175 70.0542 72.1875 70.0022 72.1615 69.8981L72.1094 69.742L73.8003 68.9356L75.2571 73.9822H75.4652ZM73.6702 67.4528L72.9679 68.7015L71.7192 67.9991L72.3956 66.7765L73.6442 67.4528H73.6702Z" stroke="#0C031F" stroke-width="0.83243" stroke-miterlimit="5.3"/>
<path id="Vector_59" d="M77.9361 70.2102C78.3263 70.2883 78.6905 70.3663 79.0026 70.4964C79.3148 70.6265 79.5229 70.8346 79.653 71.1727C79.705 71.3288 79.731 71.4849 79.757 71.693C79.757 71.9011 79.757 72.1092 79.653 72.3434C79.5749 72.5775 79.4189 72.7856 79.1847 72.9937C78.9506 73.2018 78.6124 73.4099 78.1962 73.566C77.9881 73.644 77.78 73.696 77.5459 73.696C77.3118 73.696 77.0776 73.67 76.8435 73.592C76.6094 73.514 76.4013 73.4359 76.2452 73.2798C76.0631 73.1498 75.9331 72.9937 75.881 72.7856C75.829 72.6815 75.829 72.5775 75.855 72.4474C75.855 72.3173 75.907 72.1873 75.9331 72.0572C75.9851 71.9271 76.0111 71.8231 76.0631 71.745C76.0891 71.667 76.1151 71.615 76.1151 71.615C76.1151 71.615 76.1672 71.667 76.2712 71.745C76.3753 71.8231 76.5314 71.9271 76.7135 72.0572C76.8955 72.1873 77.1037 72.2913 77.3118 72.4214C77.5199 72.5254 77.754 72.6295 77.9621 72.7075C78.1702 72.7856 78.3783 72.8116 78.5604 72.7856C78.7425 72.7856 78.8726 72.6555 78.9766 72.4994C79.1067 72.2913 79.1067 72.0832 78.9506 71.8751C78.7945 71.667 78.5084 71.5369 78.1182 71.4589C78.0141 71.4589 77.8841 71.4329 77.702 71.4069C77.5459 71.4069 77.3638 71.3548 77.1817 71.3288C76.9996 71.3028 76.8175 71.2768 76.6874 71.2768C76.2972 71.2248 76.0111 71.1727 75.855 71.1207C75.6989 71.0687 75.5689 70.9646 75.4648 70.8346C75.3608 70.7045 75.3087 70.5224 75.2827 70.3143C75.2827 70.1062 75.2827 69.9241 75.2827 69.794C75.2827 69.5859 75.3608 69.3518 75.4388 69.1177C75.5168 68.8836 75.6469 68.6494 75.803 68.4413C75.9591 68.2332 76.1412 68.1032 76.3753 68.0251C76.7395 67.8951 77.0776 67.817 77.3898 67.817C77.702 67.817 77.9361 67.817 78.1182 67.869C78.3003 67.9211 78.4043 67.9211 78.4043 67.9211L78.0141 69.2998C78.0141 69.2998 77.9621 69.2738 77.858 69.1957C77.754 69.1177 77.6239 69.0657 77.4418 68.9876C77.2858 68.9096 77.0776 68.8576 76.8695 68.8315C76.6614 68.8055 76.4533 68.8315 76.2192 68.9096C76.1412 68.9356 76.0631 69.0136 76.0111 69.1177C75.9591 69.2217 75.9591 69.3518 75.9591 69.4819C75.9591 69.6119 76.0371 69.742 76.1151 69.8461C76.2192 69.9501 76.3493 70.0282 76.5574 70.0542C76.8955 70.1062 77.1557 70.1322 77.3638 70.1582C77.5459 70.1842 77.754 70.2363 77.9361 70.2623V70.2102Z" stroke="#0C031F" stroke-width="0.83243" stroke-miterlimit="5.3"/>
<path id="Vector_60" d="M82.4887 70.8607L82.0465 72.1353L80.7718 71.6931L81.2141 70.4184L82.4887 70.8607ZM81.3441 69.8201L80.6678 70.1323L77.7803 64.6435L78.9249 64.0972L81.3441 69.8201Z" stroke="#0C031F" stroke-width="0.83243" stroke-miterlimit="5.3"/>
<path id="Vector_61" d="M48.0727 68.8056L49.5815 69.4039L49.5295 69.534C49.4774 69.638 49.4254 69.69 49.3214 69.69L48.9832 69.612L46.0957 73.8522L44.5609 73.2279L44.9511 70.9387L43.4943 72.7856L42.0376 72.1873L42.74 67.0887L42.3237 66.8286C42.2457 66.7765 42.2197 66.7245 42.1937 66.6985C42.1937 66.6465 42.1937 66.6205 42.1937 66.5424L42.2457 66.4124L44.4568 67.3228L44.4048 67.4529C44.4048 67.5049 44.3528 67.5569 44.3008 67.583C44.2748 67.583 44.1967 67.583 44.0927 67.583L43.8585 67.5309L43.1562 72.1613L45.0031 69.638L45.2112 67.661L46.4079 68.1553L45.6795 73.2019L48.2548 69.3779L48.0467 69.1958C47.9687 69.1178 47.9426 69.0397 47.9947 68.9357L48.0467 68.8056H48.0727Z" fill="white"/>
<path id="Vector_62" d="M52.3389 67.3749L53.0153 67.557L48.8531 74.6586L48.1768 74.4765L52.3389 67.3749Z" fill="white"/>
<path id="Vector_63" d="M57.0994 75.6471C57.0994 75.6471 57.1774 75.6471 57.3335 75.5691C57.4896 75.517 57.6717 75.413 57.8798 75.2829C58.0879 75.1529 58.322 74.9447 58.5562 74.7106C58.7903 74.4505 58.9984 74.1383 59.1805 73.7481C59.3626 73.3579 59.4666 72.8897 59.5186 72.3434C59.5447 71.9272 59.5186 71.537 59.4146 71.1988C59.3105 70.8606 59.1545 70.5485 58.9724 70.2623C58.7903 70.0022 58.5561 69.7681 58.322 69.638C58.0879 69.4819 57.8278 69.4039 57.5937 69.3779C57.5937 69.638 57.5416 69.9762 57.5156 70.3924C57.4896 70.8086 57.4636 71.2508 57.4116 71.7191C57.3855 72.1873 57.3335 72.6556 57.3075 73.1238C57.2815 73.592 57.2295 74.0083 57.2034 74.3985C57.1774 74.7887 57.1514 75.1008 57.1254 75.3089C57.1254 75.5431 57.0994 75.6471 57.0994 75.6471ZM58.9724 68.5975C58.9724 68.5975 59.0504 68.6495 59.2065 68.7275C59.3626 68.8056 59.5447 68.9356 59.7528 69.1177C59.9609 69.2998 60.195 69.5339 60.4031 69.8201C60.6112 70.1062 60.7673 70.4704 60.8974 70.8866C61.0274 71.3029 61.0534 71.7971 61.0274 72.3694C60.9754 72.8897 60.8453 73.3839 60.5852 73.8522C60.3251 74.3204 59.9869 74.7366 59.5967 75.1008C59.1805 75.465 58.7382 75.7512 58.27 75.9333C57.8018 76.1414 57.3075 76.1934 56.8132 76.1674C56.8132 76.1674 56.7612 76.1674 56.6572 76.1674C56.5531 76.1674 56.423 76.1674 56.267 76.1414C56.1109 76.1414 55.9548 76.1414 55.7987 76.1154C55.6426 76.1154 55.5126 76.1153 55.4085 76.0893C55.3045 76.0893 55.2524 76.0893 55.2524 76.0893V75.9593C55.2524 75.9072 55.2785 75.8552 55.3045 75.8292C55.3305 75.8032 55.4085 75.7772 55.4866 75.7512H55.7727C55.7727 75.7252 56.293 69.0397 56.293 69.0397H56.0849C55.8768 69.0137 55.7987 68.9356 55.7987 68.8056V68.6495L57.6457 68.4934V68.9877C57.6197 68.9877 58.9724 68.6235 58.9724 68.6235V68.5975Z" fill="white"/>
<path id="Vector_64" d="M66.8547 75.8292C66.9847 75.8553 67.0628 75.9333 67.0628 76.0374V76.1674L65.2158 76.2715L65.1378 74.9188L63.681 76.5576C63.681 76.5576 63.603 76.5056 63.4729 76.4276C63.3429 76.3495 63.1868 76.2194 62.9787 76.0894C62.7706 75.9333 62.5885 75.7512 62.3804 75.5431C62.1723 75.335 61.9902 75.1009 61.8601 74.8407C61.704 74.5806 61.626 74.2945 61.626 73.9823C61.626 73.6701 61.652 73.358 61.756 73.0458C61.8601 72.7336 62.0162 72.4475 62.1723 72.1614C62.3544 71.8752 62.5104 71.6411 62.6925 71.433C62.8746 71.2249 63.0307 71.0428 63.1348 70.9387C63.2648 70.8087 63.3169 70.7566 63.3169 70.7566L64.9297 71.5891L64.8777 70.6786L66.7506 70.8867V71.0428C66.7506 71.1728 66.6726 71.2249 66.4645 71.2509H66.2564L66.5165 75.8292L66.8287 75.8813L66.8547 75.8292ZM63.7331 75.8813L65.0858 74.0083L64.9557 71.9793C64.8777 71.9272 64.7996 71.9012 64.6956 71.8752C64.5915 71.8492 64.4614 71.8232 64.3054 71.8492C64.1753 71.8492 64.0452 71.9012 63.8631 72.0053C63.7071 72.1093 63.525 72.2394 63.3689 72.4215C63.2128 72.6036 63.0827 72.8117 63.0047 73.0718C62.9266 73.332 62.8746 73.6181 62.9006 73.9303C62.9006 74.3725 63.0047 74.7367 63.1348 74.9968C63.2648 75.283 63.3949 75.4911 63.525 75.6471C63.655 75.7772 63.7071 75.8553 63.7071 75.8553L63.7331 75.8813Z" fill="white"/>
<path id="Vector_65" d="M70.3922 70.0542L72.057 69.7421V69.8721C72.109 69.9762 72.057 70.0542 71.979 70.1063L71.6408 70.2363L71.1465 75.439L69.5597 75.7252L67.3746 71.0427H66.9584C66.8803 71.0427 66.8023 71.0167 66.7763 70.9907C66.7503 70.9907 66.7243 70.9127 66.6982 70.8606V70.7306L69.0395 70.2883V70.4184C69.0655 70.4965 69.0655 70.5225 69.0395 70.5745C69.0395 70.6005 68.9614 70.6525 68.8834 70.6786L68.6753 70.7826L70.5482 75.0748L70.8864 70.3664H70.6003C70.4962 70.3664 70.4442 70.2883 70.4182 70.1843V70.0542H70.3922Z" fill="white"/>
<path id="Vector_66" d="M75.465 73.9822C75.5431 73.9822 75.6211 73.9822 75.6471 74.0342C75.6731 74.0342 75.6992 74.0863 75.7252 74.1383V74.2684C75.7512 74.2684 73.5921 74.8927 73.5921 74.8927V74.7626C73.514 74.6586 73.5921 74.5805 73.6961 74.5025L73.9823 74.3464L72.7076 69.9501L72.4995 70.0282C72.3174 70.0802 72.1873 70.0282 72.1613 69.9241L72.1093 69.768L73.8002 68.9616L75.2569 74.0082H75.465V73.9822ZM73.6701 67.4528L72.9938 68.7015L71.7451 67.9991L72.4215 66.7765L73.6701 67.4528Z" fill="white"/>
<path id="Vector_67" d="M77.9362 70.2102C78.3264 70.2883 78.6906 70.3663 79.0028 70.4964C79.315 70.6265 79.5231 70.8346 79.6531 71.1727C79.7052 71.3288 79.7312 71.4849 79.7572 71.693C79.7572 71.9011 79.7572 72.1092 79.6531 72.3434C79.5751 72.5515 79.419 72.7856 79.1849 72.9937C78.9508 73.2018 78.6386 73.4099 78.1964 73.566C77.9883 73.644 77.7802 73.696 77.52 73.696C77.2859 73.696 77.0518 73.67 76.8177 73.592C76.5835 73.514 76.3754 73.4359 76.1933 73.3058C76.0112 73.1758 75.9072 72.9937 75.8292 72.8116C75.7771 72.7075 75.7771 72.6035 75.8031 72.4734C75.8031 72.3434 75.8552 72.2133 75.9072 72.0832C75.9592 71.9532 75.9852 71.8491 76.0113 71.7711C76.0373 71.693 76.0633 71.641 76.0633 71.641C76.0633 71.641 76.1153 71.693 76.2194 71.7711C76.3234 71.8491 76.4795 71.9532 76.6616 72.0832C76.8437 72.2133 77.0518 72.3173 77.2599 72.4474C77.468 72.5515 77.7021 72.6555 77.9102 72.7336C78.1183 72.8116 78.3264 72.8376 78.5085 72.8116C78.6906 72.8116 78.8207 72.6815 78.9248 72.5254C79.0548 72.3173 79.0548 72.1092 78.8987 71.9011C78.7427 71.693 78.4825 71.5629 78.0663 71.4849C77.9623 71.4849 77.8322 71.4329 77.6501 71.4329C77.494 71.4329 77.3119 71.3809 77.1298 71.3548C76.9477 71.3288 76.7917 71.3028 76.6356 71.2768C76.2454 71.2248 75.9592 71.1988 75.7771 71.1207C75.621 71.0687 75.465 70.9646 75.3869 70.8346C75.2829 70.7045 75.2308 70.5224 75.2048 70.3143C75.2048 70.1062 75.2048 69.9241 75.2048 69.794C75.2048 69.5859 75.2569 69.3518 75.3609 69.0917C75.439 68.8576 75.569 68.6234 75.7251 68.4413C75.8812 68.2332 76.0633 68.1032 76.2974 68.0251C76.6616 67.8951 76.9998 67.817 77.3119 67.817C77.6241 67.817 77.8582 67.817 78.0403 67.869C78.2224 67.9211 78.3264 67.9211 78.3264 67.9211L77.9362 69.2998C77.9362 69.2998 77.8842 69.2738 77.7802 69.1957C77.6761 69.1177 77.546 69.0396 77.39 68.9876C77.2079 68.9096 77.0258 68.8576 76.8177 68.8315C76.6096 68.8055 76.4014 68.8315 76.1673 68.9096C76.0893 68.9356 76.0112 69.0136 75.9592 69.1177C75.9072 69.2217 75.9072 69.3518 75.9072 69.4819C75.9072 69.6119 75.9852 69.742 76.0633 69.8461C76.1673 69.9501 76.2974 70.0282 76.5055 70.0542C76.8437 70.1062 77.1298 70.1322 77.3119 70.1582C77.494 70.1842 77.7021 70.2103 77.8842 70.2623L77.9362 70.2102Z" fill="white"/>
<path id="Vector_68" d="M82.4887 70.8606L82.0205 72.1353L80.7458 71.6671L81.188 70.3924L82.4627 70.8346L82.4887 70.8606ZM81.3441 69.8461L80.6678 70.1583L77.7803 64.6695L78.9249 64.1232L81.3441 69.8461Z" fill="white"/>
</g>
</g>
</g>
<defs>
<clipPath id="clip0_71_908">
<rect width="120" height="86.7028" fill="white"/>
</clipPath>
</defs>
</svg>
