<svg width="24" height="25" viewBox="0 0 24 25" fill="none" xmlns="http://www.w3.org/2000/svg">
<g id="github-mark-white 1" clip-path="url(#clip0_163_804)">
<path id="Vector" fill-rule="evenodd" clip-rule="evenodd" d="M11.9642 0.811035C5.34833 0.811035 0 6.19879 0 12.8642C0 18.1922 3.42686 22.7022 8.18082 24.2985C8.77518 24.4185 8.9929 24.0391 8.9929 23.72C8.9929 23.4406 8.97331 22.4828 8.97331 21.4848C5.64514 22.2034 4.95208 20.048 4.95208 20.048C4.41722 18.6511 3.62473 18.2921 3.62473 18.2921C2.53543 17.5537 3.70408 17.5537 3.70408 17.5537C4.91241 17.6336 5.54645 18.791 5.54645 18.791C6.61592 20.6267 8.33926 20.108 9.03257 19.7887C9.13151 19.0104 9.44865 18.4716 9.78539 18.1723C7.13094 17.8929 4.33812 16.8553 4.33812 12.2255C4.33812 10.9084 4.81322 9.83087 5.56604 8.99283C5.44727 8.69357 5.03118 7.4561 5.68506 5.79985C5.68506 5.79985 6.69527 5.4805 8.97306 7.03708C9.94827 6.77324 10.954 6.63902 11.9642 6.63789C12.9744 6.63789 14.0042 6.77773 14.9552 7.03708C17.2332 5.4805 18.2434 5.79985 18.2434 5.79985C18.8973 7.4561 18.481 8.69357 18.3622 8.99283C19.1349 9.83087 19.5904 10.9084 19.5904 12.2255C19.5904 16.8553 16.7976 17.8728 14.1233 18.1723C14.5592 18.5514 14.9353 19.2697 14.9353 20.4073C14.9353 22.0236 14.9158 23.3208 14.9158 23.7198C14.9158 24.0391 15.1337 24.4185 15.7278 24.2987C20.4818 22.702 23.9087 18.1922 23.9087 12.8642C23.9282 6.19879 18.5603 0.811035 11.9642 0.811035Z" fill="white"/>
</g>
<defs>
<clipPath id="clip0_163_804">
<rect width="24" height="23.5102" fill="white" transform="translate(0 0.811035)"/>
</clipPath>
</defs>
</svg>
