<svg width="201" height="201" viewBox="0 0 201 201" fill="none" xmlns="http://www.w3.org/2000/svg">
<g id="missing-metadata 1">
<g id="&#240;&#159;&#148;&#141;-System-Icons">
<g id="ic_fluent_missing_metadata_24_regular">
<path id="&#240;&#159;&#142;&#168;-Color" d="M165.084 17.3694C175.439 17.3694 183.834 25.7641 183.834 36.1194V81.6357C183.834 88.8177 180.982 95.7052 175.903 100.784L175.685 101.004C171.998 98.6219 168.003 96.6752 163.773 95.2377L167.063 91.946C169.798 89.2119 171.334 85.5027 171.334 81.6357V36.1194C171.334 32.6676 168.536 29.8694 165.084 29.8694H119.539C115.668 29.8694 111.957 31.4083 109.221 34.1471L38.2864 105.168C32.7012 110.875 32.7436 120.029 38.4091 125.684L75.5859 162.804C80.9016 168.1 89.2792 168.46 95.0067 163.891C96.3767 167.944 98.2134 171.782 100.453 175.342C89.9776 182.01 75.9221 180.784 66.7587 171.655L29.5779 134.529C18.9906 123.964 18.9771 106.814 29.5464 96.2294L100.377 25.3139C105.457 20.2275 112.351 17.3694 119.539 17.3694H165.084ZM142.167 46.5542C149.07 46.5542 154.667 52.1506 154.667 59.0541C154.667 65.9575 149.07 71.5538 142.167 71.5538C135.263 71.5538 129.668 65.9575 129.668 59.0541C129.668 52.1506 135.263 46.5542 142.167 46.5542ZM192.167 146.536C192.167 121.223 171.647 100.703 146.333 100.703C121.02 100.703 100.5 121.223 100.5 146.536C100.5 171.849 121.02 192.369 146.333 192.369C171.647 192.369 192.167 171.849 192.167 146.536ZM141.129 171.574C141.129 168.699 143.459 166.369 146.333 166.369C149.208 166.369 151.538 168.699 151.538 171.574C151.538 174.448 149.208 176.778 146.333 176.778C143.459 176.778 141.129 174.448 141.129 171.574ZM130.889 133.681C130.798 124.207 137.601 117.395 146.333 117.395C154.926 117.395 161.778 124.444 161.778 133.641C161.778 138.358 160.235 141.253 156.254 145.705L154.039 148.126L153.198 149.089C151.138 151.52 150.5 152.939 150.5 154.874C150.5 157.175 148.635 159.041 146.333 159.041C144.033 159.041 142.167 157.175 142.167 154.874C142.167 150.082 143.723 147.16 147.759 142.647L149.971 140.229L150.796 139.286C152.818 136.9 153.445 135.51 153.445 133.641C153.445 128.994 150.27 125.729 146.333 125.729C142.219 125.729 139.176 128.776 139.222 133.601C139.244 135.902 137.397 137.785 135.095 137.808C132.794 137.829 130.911 135.982 130.889 133.681Z" fill="#0DAE5E"/>
</g>
</g>
</g>
</svg>
