<svg width="15" height="15" viewBox="0 0 15 15" fill="none" xmlns="http://www.w3.org/2000/svg">
<g id="next-arrow-circle 1" clip-path="url(#clip0_71_1832)">
<g id="Group">
<g id="Group_2">
<path id="Vector" d="M14.5 7.70264C14.5 3.84279 11.3598 0.702637 7.5 0.702636C3.64021 0.702636 0.5 3.84279 0.5 7.70264C0.5 11.5625 3.64021 14.7026 7.5 14.7026C11.3598 14.7026 14.5 11.5625 14.5 7.70264ZM1.85483 7.70264C1.85483 4.58991 4.38724 2.05746 7.5 2.05746C10.6128 2.05746 13.1452 4.58991 13.1452 7.70264C13.1452 10.8154 10.6127 13.3478 7.5 13.3478C4.38727 13.3478 1.85483 10.8154 1.85483 7.70264Z" fill="white"/>
</g>
</g>
<g id="Group_3">
<g id="Group_4">
<path id="Vector_2" d="M7.4998 11.3156L10.7922 8.02488L8.17749 8.02488L8.17749 4.08984L6.82266 4.08984L6.82266 8.02488L4.20822 8.02488L7.4998 11.3156Z" fill="white"/>
</g>
</g>
</g>
<defs>
<clipPath id="clip0_71_1832">
<rect width="14" height="14" fill="white" transform="translate(14.5 0.702637) rotate(90)"/>
</clipPath>
</defs>
</svg>
