<svg width="14" height="15" viewBox="0 0 14 15" fill="none" xmlns="http://www.w3.org/2000/svg">
<g id="question-filled 1">
<path id="Vector" d="M7.00001 1.57776C8.62446 1.57776 10.1824 2.22307 11.331 3.37173C12.4797 4.52039 13.125 6.07831 13.125 7.70276C13.125 9.32721 12.4797 10.8851 11.331 12.0338C10.1824 13.1824 8.62446 13.8278 7.00001 13.8278C5.37556 13.8278 3.81764 13.1824 2.66898 12.0338C1.52032 10.8851 0.875011 9.32721 0.875011 7.70276C0.875011 6.07831 1.52032 4.52039 2.66898 3.37173C3.81764 2.22307 5.37556 1.57776 7.00001 1.57776ZM7.32464 4.19576C6.61239 4.19576 6.05414 4.39788 5.64026 4.80213C5.21676 5.20638 5.01464 5.76463 5.01464 6.47688H6.11189C6.11189 6.07263 6.18889 5.75501 6.35251 5.53363C6.53539 5.26413 6.83376 5.13901 7.25726 5.13901C7.58451 5.13901 7.84439 5.22563 8.02726 5.40851C8.20051 5.59138 8.29676 5.84163 8.29676 6.15926C8.29676 6.39988 8.21014 6.63088 8.03689 6.84263L7.92139 6.97738C7.29576 7.53563 6.92039 7.93988 6.79526 8.19976C6.66051 8.45963 6.60276 8.77726 6.60276 9.14301V9.27776H7.70964V9.14301C7.70964 8.91201 7.75776 8.70988 7.85401 8.51738C7.94064 8.34413 8.06576 8.18051 8.23901 8.03613C8.70101 7.63188 8.98014 7.37201 9.06676 7.27576C9.29776 6.96776 9.42289 6.57313 9.42289 6.09188C9.42289 5.50476 9.23039 5.04276 8.84539 4.70588C8.46039 4.35938 7.95026 4.19576 7.32464 4.19576ZM7.15139 9.74938C6.95514 9.74407 6.76478 9.81675 6.62201 9.95151C6.55153 10.0179 6.49614 10.0987 6.4596 10.1884C6.42307 10.278 6.40624 10.3745 6.41026 10.4713C6.41026 10.683 6.47764 10.8563 6.62201 10.991C6.76371 11.1285 6.95393 11.2046 7.15139 11.2028C7.36314 11.2028 7.53639 11.1354 7.68076 11.0006C7.75274 10.9329 7.80966 10.8507 7.8478 10.7595C7.88594 10.6683 7.90445 10.5701 7.90214 10.4713C7.90398 10.3748 7.88616 10.2789 7.84976 10.1896C7.81335 10.1002 7.75912 10.0192 7.69039 9.95151C7.5439 9.8165 7.35052 9.74399 7.15139 9.74938Z" fill="white"/>
</g>
</svg>
